<svg id="wireframe_2_" data-name="wireframe (2)" xmlns="http://www.w3.org/2000/svg" width="32" height="32" viewBox="0 0 32 32">
  <path id="Path_2269" data-name="Path 2269" d="M26,32H6a6,6,0,0,1-6-6V6A6,6,0,0,1,6,0H26a6,6,0,0,1,6,6V26A6,6,0,0,1,26,32Z" fill="#e3f8fa"/>
  <g id="Team" transform="translate(3.095 3.095)">
    <path id="Path_2280" data-name="Path 2280" d="M17.945,18.575A1.125,1.125,0,0,0,19.07,17.45v-.424a1.11,1.11,0,0,1-.485-.281l-.265-.265-.045.045a1.863,1.863,0,0,1-1.326.549H16.82v.375A1.125,1.125,0,0,0,17.945,18.575Z" transform="translate(-5.04 -4.92)" fill="#26c6da"/>
    <path id="Path_2281" data-name="Path 2281" d="M17.54,14.886l.31-.311a.375.375,0,0,1,.53,0l.53.53a.378.378,0,0,0,.265.11h.064V14.84a1.5,1.5,0,1,0-3,0v.375h.5a1.119,1.119,0,0,0,.8-.329Z" transform="translate(-4.835 -3.81)" fill="#26c6da"/>
    <path id="Path_2282" data-name="Path 2282" d="M18.017,22.062l-.626.626a.375.375,0,0,1-.53,0l-.626-.626A1.87,1.87,0,0,0,14.5,23.9a4.838,4.838,0,0,0,5.246,0,1.871,1.871,0,0,0-1.732-1.838Z" transform="translate(-4.221 -6.893)" fill="#26c6da"/>
    <path id="Path_2283" data-name="Path 2283" d="M17.98,20.822v.258l.375.375.375-.375v-.258A1.875,1.875,0,0,1,17.98,20.822Z" transform="translate(-5.45 -6.455)" fill="#26c6da"/>
    <path id="Path_2284" data-name="Path 2284" d="M15.895,11.02a4.869,4.869,0,0,0-3.313,8.443,2.631,2.631,0,0,1,2.188-2.041v-.413a1.866,1.866,0,0,1-.75-1.489v-.375a.375.375,0,0,1-.375-.375v-.75a2.25,2.25,0,0,1,4.5,0v.75a.375.375,0,0,1-.375.375v.375a1.866,1.866,0,0,1-.75,1.49v.413a2.631,2.631,0,0,1,2.188,2.041,4.869,4.869,0,0,0-3.313-8.444Z" transform="translate(-2.99 -2.99)" fill="#26c6da"/>
    <path id="Path_2285" data-name="Path 2285" d="M23.25,12.9,21.9,11.56v.22a.375.375,0,0,1-.375.375H19.554a.375.375,0,0,1-.37-.313,6.293,6.293,0,0,0-1.1-2.647.375.375,0,0,1,.035-.479l1.643-1.7a.375.375,0,0,1,.267-.113h0a.375.375,0,0,1,.265.11l.11.11V5.4h-1.72l.11.11a.375.375,0,0,1,0,.534l-1.7,1.643a.375.375,0,0,1-.479.035,6.29,6.29,0,0,0-2.647-1.1.375.375,0,0,1-.313-.37V4.28A.375.375,0,0,1,14.03,3.9h.22L12.9,2.56,11.56,3.9h.22a.375.375,0,0,1,.375.375V6.256a.375.375,0,0,1-.313.37A6.29,6.29,0,0,0,9.2,7.728a.375.375,0,0,1-.479-.035l-1.7-1.643a.375.375,0,0,1,0-.534l.11-.11H5.4v1.72l.11-.11A.375.375,0,0,1,5.78,6.9h0a.375.375,0,0,1,.267.112l1.643,1.7a.375.375,0,0,1,.035.479,6.293,6.293,0,0,0-1.1,2.647.375.375,0,0,1-.37.313H4.28A.375.375,0,0,1,3.9,11.78v-.22L2.56,12.9,3.9,14.25v-.22a.375.375,0,0,1,.375-.375H6.256a.375.375,0,0,1,.37.313,6.293,6.293,0,0,0,1.1,2.647.375.375,0,0,1-.035.479l-1.643,1.7a.375.375,0,0,1-.267.112h0a.375.375,0,0,1-.265-.11l-.11-.11V20.4h1.72l-.11-.11a.375.375,0,0,1,0-.534l1.7-1.643a.375.375,0,0,1,.479-.035,6.29,6.29,0,0,0,2.647,1.1.375.375,0,0,1,.313.37V21.53a.375.375,0,0,1-.375.375h-.22L12.9,23.25,14.25,21.9h-.22a.375.375,0,0,1-.375-.375V19.554a.375.375,0,0,1,.313-.37,6.289,6.289,0,0,0,2.647-1.1.375.375,0,0,1,.479.035l1.7,1.643a.375.375,0,0,1,0,.534l-.112.11H20.4v-1.72l-.11.11a.375.375,0,0,1-.265.11h0a.375.375,0,0,1-.267-.112l-1.643-1.7a.375.375,0,0,1-.035-.479,6.292,6.292,0,0,0,1.1-2.647.375.375,0,0,1,.37-.313H21.53a.375.375,0,0,1,.375.375v.22Zm-7.131,4.613a5.625,5.625,0,1,1,1.955-6.836,5.625,5.625,0,0,1-1.955,6.836Z" fill="#26c6da"/>
  </g>
</svg>
