<svg id="wireframe_3_" data-name="wireframe (3)" xmlns="http://www.w3.org/2000/svg" width="32" height="32" viewBox="0 0 32 32">
  <path id="Path_2286" data-name="Path 2286" d="M26,32H6a6,6,0,0,1-6-6V6A6,6,0,0,1,6,0H26a6,6,0,0,1,6,6V26A6,6,0,0,1,26,32Z" fill="#f5e6fe"/>
  <path id="checked" d="M.21,10.7a.677.677,0,0,1,0-.98l.98-.98a.677.677,0,0,1,.98,0l.07.07,3.85,4.13a.338.338,0,0,0,.49,0l9.38-9.73h.07a.677.677,0,0,1,.98,0l.98.98a.677.677,0,0,1,0,.98h0L6.79,16.79a.677.677,0,0,1-.98,0L.35,10.91.21,10.7Z" transform="translate(6.9 6)" fill="#be63f9"/>
</svg>
