<svg id="wireframe_1_" data-name="wireframe (1)" xmlns="http://www.w3.org/2000/svg" width="32" height="32" viewBox="0 0 32 32">
  <path id="Path_2270" data-name="Path 2270" d="M26,32H6a6,6,0,0,1-6-6V6A6,6,0,0,1,6,0H26a6,6,0,0,1,6,6V26A6,6,0,0,1,26,32Z" fill="#fff9dd"/>
  <g id="start-up" transform="translate(8 7.999)">
    <path id="Path_2278" data-name="Path 2278" d="M73.2,283.22a.469.469,0,0,0,.087.542l.115.115c.331-.392.717-.818,1.185-1.286.033-.033.067-.049.1-.08l-.737-.738C73.52,282.549,73.27,283.078,73.2,283.22Zm0,0" transform="translate(-70.862 -272.967)" fill="#ffd200"/>
    <path id="Path_2279" data-name="Path 2279" d="M164.175,389.662c-.469.469-.894.856-1.284,1.187l.155.155a.469.469,0,0,0,.546.085c.243-.125.625-.3,1.435-.756l-.772-.772C164.224,389.6,164.208,389.629,164.175,389.662Zm0,0" transform="translate(-157.799 -377.387)" fill="#ffd200"/>
    <path id="Path_2280" data-name="Path 2280" d="M63.851,311.447c-.339-.339-1.291-.035-1.739.412a12.466,12.466,0,0,0-2.477,3.185.469.469,0,0,0,.627.626,12.556,12.556,0,0,0,3.176-2.485c.492-.492.735-1.416.413-1.738Zm0,0" transform="translate(-57.725 -301.573)" fill="#ffd200"/>
    <path id="Path_2281" data-name="Path 2281" d="M1.464,164.906.138,166.232a.469.469,0,0,0,.453.784,3.852,3.852,0,0,1,1.772-.164,25.152,25.152,0,0,1,1.94-2.96c-.4-.255-1.711-.113-2.839,1.015Zm0,0" transform="translate(0 -158.664)" fill="#ffd200"/>
    <path id="Path_2282" data-name="Path 2282" d="M245.9,380.677a.468.468,0,0,0,.542-.087l1.326-1.326a2.937,2.937,0,0,0,.974-2.771,26.75,26.75,0,0,1-2.962,1.926,5.744,5.744,0,0,1-.133,1.771A.468.468,0,0,0,245.9,380.677Zm0,0" transform="translate(-237.963 -364.726)" fill="#ffd200"/>
    <path id="Path_2283" data-name="Path 2283" d="M285.055,137.72a1.406,1.406,0,1,0,1.989,0A1.408,1.408,0,0,0,285.055,137.72Zm0,0" transform="translate(-275.748 -133.017)" fill="#ffd200"/>
    <path id="Path_2284" data-name="Path 2284" d="M391.628.459A.468.468,0,0,0,391.2.026a9.267,9.267,0,0,0-3.422.4,3.935,3.935,0,0,0,1.166,2.29,3.923,3.923,0,0,0,2.334,1.164,9.693,9.693,0,0,0,.354-3.42Zm0,0" transform="translate(-375.655 0)" fill="#ffd200"/>
    <path id="Path_2285" data-name="Path 2285" d="M123.387,26.623A4.924,4.924,0,0,1,121.978,24a17,17,0,0,0-7.639,7.217l1.058,1.058a1.68,1.68,0,0,1,2.342,2.342l1.093,1.093c2.725-1.642,5.9-4.229,7.246-7.672a4.9,4.9,0,0,1-2.691-1.411Zm-.663,3.977a2.344,2.344,0,1,1,0-3.315A2.346,2.346,0,0,1,122.724,30.6Zm0,0" transform="translate(-110.765 -23.245)" fill="#ffd200"/>
  </g>
</svg>
