<?xml version="1.0" encoding="utf-8"?>
<!-- Generator: Adobe Illustrator 15.0.0, SVG Export Plug-In  -->
<!DOCTYPE svg PUBLIC "-//W3C//DTD SVG 1.1//EN" "http://www.w3.org/Graphics/SVG/1.1/DTD/svg11.dtd" [
	<!ENTITY ns_flows "http://ns.adobe.com/Flows/1.0/">
]>
<svg version="1.1"
	 xmlns="http://www.w3.org/2000/svg" xmlns:xlink="http://www.w3.org/1999/xlink" xmlns:a="http://ns.adobe.com/AdobeSVGViewerExtensions/3.0/"
	 x="0px" y="0px" width="65px" height="50px" viewBox="-12 -4.84 65 50" enable-background="new -12 -4.84 65 50"
	 xml:space="preserve">
<defs>
</defs>
<path fill="#A93673" d="M13.451,27.725c1.688,2.381,3.374,4.511,4.492,5.882c0.163,0.199,0.315,0.385,0.462,0.563h-3.372
	c-0.377,0-0.683,0.306-0.683,0.683c0,0.378,0.306,0.684,0.683,0.684h10.933c0.377,0,0.684-0.306,0.684-0.684
	c0-0.377-0.307-0.683-0.684-0.683h-3.371c0.147-0.179,0.3-0.364,0.463-0.563c1.117-1.367,2.802-3.501,4.491-5.882
	c1.676-2.314,3.185-4.746,4.515-7.275c1.395-2.74,2.103-5.015,2.103-6.762c0.005-3.629-1.436-7.11-4.002-9.677
	c-0.172-0.178-0.426-0.249-0.665-0.187c-0.238,0.063-0.426,0.249-0.488,0.487c-0.063,0.239,0.009,0.493,0.186,0.665
	c2.311,2.31,3.607,5.444,3.604,8.711c0,1.529-0.658,3.596-1.955,6.142c-1.299,2.471-2.773,4.846-4.411,7.106
	c-1.666,2.351-3.331,4.455-4.435,5.809c-0.367,0.449-0.697,0.848-0.979,1.184c-0.132,0.15-0.322,0.236-0.521,0.236
	c-0.2,0-0.389-0.087-0.521-0.236c-0.282-0.336-0.612-0.734-0.979-1.184c-1.104-1.353-2.769-3.458-4.435-5.809
	c-1.638-2.261-3.112-4.636-4.412-7.106C8.856,17.284,8.2,15.217,8.2,13.688c0-4.949,2.96-9.419,7.517-11.351
	c3.062-1.284,6.511-1.284,9.574,0c0.225,0.095,0.483,0.063,0.678-0.084c0.195-0.146,0.297-0.387,0.268-0.629
	c-0.03-0.242-0.188-0.45-0.412-0.546C18.866-1.856,10.845,1.404,7.908,8.362c-0.712,1.686-1.078,3.497-1.074,5.326
	c0,1.747,0.708,4.021,2.103,6.766C10.267,22.982,11.775,25.412,13.451,27.725z"/>
<path fill="#A93673" d="M20.5,7.52c0.377,0,0.683-0.307,0.683-0.684S20.878,6.153,20.5,6.153c-3.26,0-6.066,2.303-6.702,5.501
	c-0.636,3.197,1.075,6.398,4.087,7.646c3.012,1.248,6.486,0.194,8.296-2.517c1.812-2.71,1.455-6.323-0.85-8.628
	c-0.172-0.178-0.426-0.249-0.664-0.187c-0.239,0.063-0.426,0.249-0.488,0.488c-0.063,0.238,0.009,0.493,0.186,0.664
	c1.845,1.845,2.129,4.734,0.681,6.903c-1.448,2.168-4.228,3.011-6.637,2.014c-2.41-0.998-3.779-3.56-3.27-6.117
	C15.647,9.362,17.892,7.52,20.5,7.52z"/>
<path fill="#A93673" d="M40.742,37.293l-4.201-7.517c-0.381-0.668-1.092-1.078-1.859-1.073h-4.871c-0.377,0-0.684,0.306-0.684,0.683
	c0,0.378,0.307,0.684,0.684,0.684h4.871c0.273-0.005,0.528,0.138,0.667,0.373l4.201,7.517c0.114,0.195,0.112,0.438-0.007,0.632
	c-0.139,0.23-0.392,0.368-0.66,0.362H2.119c-0.27,0.006-0.521-0.132-0.661-0.362c-0.118-0.193-0.12-0.437-0.006-0.632l4.201-7.517
	c0.139-0.235,0.394-0.378,0.667-0.373h4.87c0.377,0,0.683-0.306,0.683-0.684c0-0.377-0.306-0.683-0.683-0.683H6.32
	c-0.769-0.006-1.48,0.405-1.861,1.073l-4.202,7.517c-0.351,0.619-0.342,1.378,0.021,1.989c0.383,0.651,1.085,1.047,1.84,1.037
	h36.764c0.754,0.01,1.456-0.387,1.839-1.037C41.085,38.671,41.094,37.913,40.742,37.293z"/>
<path fill="#A93673" d="M33.484,32.12H30.75c-0.135,0.001-0.267,0.04-0.379,0.115l-2.05,1.366c-0.313,0.21-0.399,0.634-0.189,0.948
	s0.634,0.398,0.948,0.189l1.875-1.252h2.529c0.377,0,0.683-0.306,0.683-0.684C34.167,32.426,33.861,32.12,33.484,32.12z"/>
<path fill="#A93673" d="M29.384,36.903c0,0.378,0.306,0.684,0.683,0.684h5.467c0.378,0,0.684-0.306,0.684-0.684
	c0-0.377-0.306-0.683-0.684-0.683h-5.467C29.689,36.22,29.384,36.526,29.384,36.903z"/>
<path fill="#A93673" d="M12.3,34.853c0.301,0.001,0.567-0.196,0.655-0.484c0.087-0.288-0.024-0.601-0.275-0.768l-2.05-1.366
	c-0.113-0.075-0.245-0.115-0.38-0.115H7.517c-0.377,0-0.684,0.307-0.684,0.684s0.306,0.684,0.684,0.684h2.528l1.877,1.252
	C12.035,34.813,12.166,34.853,12.3,34.853z"/>
<path fill="#A93673" d="M5.467,36.22c-0.377,0-0.683,0.306-0.683,0.683c0,0.378,0.306,0.684,0.683,0.684h5.467
	c0.377,0,0.683-0.306,0.683-0.684c0-0.377-0.306-0.683-0.683-0.683H5.467z"/>
</svg>
