<?xml version="1.0" encoding="utf-8"?>
<!-- Generator: Adobe Illustrator 15.0.0, SVG Export Plug-In  -->
<!DOCTYPE svg PUBLIC "-//W3C//DTD SVG 1.1//EN" "http://www.w3.org/Graphics/SVG/1.1/DTD/svg11.dtd" [
	<!ENTITY ns_flows "http://ns.adobe.com/Flows/1.0/">
]>
<svg version="1.1"
	 xmlns="http://www.w3.org/2000/svg" xmlns:xlink="http://www.w3.org/1999/xlink" xmlns:a="http://ns.adobe.com/AdobeSVGViewerExtensions/3.0/"
	 x="0px" y="0px" width="195px" height="71px" viewBox="-0.058 -6.234 195 71" enable-background="new -0.058 -6.234 195 71"
	 xml:space="preserve">
<defs>
</defs>
<g id="Zawag_1_">
	<g>
		<path fill-rule="evenodd" clip-rule="evenodd" fill="#FFFFFF" d="M113.929,23.998c0-1.404-0.372-2.38-1.118-2.925
			c-0.746-0.544-1.849-0.816-3.311-0.816c-0.344,0-0.946,0.028-1.807,0.086c0.172,1.376,0.258,3.175,0.258,5.396
			s-0.365,4.565-1.096,7.03c-0.73,2.466-1.706,4.487-2.924,6.063c-1.219,1.576-2.502,2.364-3.849,2.364
			c-0.918,0-1.628-0.422-2.129-1.269c-0.501-0.845-0.752-1.941-0.752-3.289c0-2.896,0.861-5.854,2.58-8.88
			c1.721-3.023,4.027-5.052,6.924-6.084c-1.377-0.631-2.725-0.946-4.043-0.946c-2.293,0-4.371,0.854-6.234,2.559
			c-1.864,1.706-3.261,3.784-4.192,6.235c-0.932,2.45-1.397,4.98-1.397,7.589c0,0.521,0.041,1,0.087,1.475
			c-3.327,1.081-8.456,1.622-15.395,1.622h-0.645c2.264-3.526,5.461-7.683,9.589-12.471c1.49-1.748,2.909-3.468,4.257-5.16
			c2.895-3.583,4.343-6.306,4.343-8.17c0-1.892-0.946-3.783-2.838-5.676c-0.144,0.717-0.459,1.649-0.946,2.795
			c-1.52,0.172-4.1,0.258-7.74,0.258c-3.641,0-7.224-0.243-10.75-0.73c-0.172,0.545-0.287,1.477-0.344,2.795
			c0,2.638,0.688,3.956,2.064,3.956c2.436,0,7.396-0.803,14.878-2.408c-3.928,7.138-10.019,15.581-18.275,25.327
			c-2.15,0.774-3.511,2.265-4.085,4.472c2.236-0.573,4.687-0.859,7.353-0.859s5.26,0.157,7.783,0.473
			c2.522,0.315,4.185,0.473,4.988,0.473c1.548,0,2.838-0.587,3.87-1.763c1.001-1.139,1.63-2.732,1.903-4.763
			c0.201,1.822,0.742,3.295,1.644,4.397c1.161,1.419,2.694,2.128,4.601,2.128c1.906,0,3.849-0.831,5.827-2.493
			c1.978-1.663,3.354-3.855,4.128-6.579c-0.115,1.146-0.172,1.921-0.172,2.321c0,2.294,0.501,4.05,1.505,5.268
			c1.003,1.219,2.58,2.014,4.729,2.387c-0.889-1.806-1.332-3.877-1.332-6.214c0-2.336,0.344-5.445,1.031-9.331
			C113.585,26.756,113.929,24.542,113.929,23.998z M142.524,19.009c-0.086,3.239-2.25,9.847-6.492,19.823
			c-0.201-1.576-0.459-4.473-0.774-8.687c-0.087-1.118-0.187-2.285-0.302-3.504c-0.114-1.219-0.258-2.215-0.43-2.989
			c-0.172-0.773-0.395-1.497-0.666-2.171c-0.273-0.674-0.617-1.161-1.032-1.462c-0.416-0.302-1.062-0.452-1.935-0.452
			c-0.875,0-2.101,0.373-3.677,1.118c0.573,1.004,1.089,2.337,1.548,3.999c-1.032,3.412-2.811,8.127-5.332,14.147
			c-0.201-1.576-0.459-4.473-0.773-8.687c-0.086-1.118-0.188-2.285-0.302-3.504s-0.258-2.215-0.43-2.989
			c-0.173-0.773-0.395-1.497-0.667-2.171s-0.616-1.161-1.031-1.462c-0.416-0.302-1.062-0.452-1.936-0.452
			c-0.875,0-2.1,0.373-3.676,1.118c0.83,1.405,1.519,3.477,2.063,6.214c0.544,2.737,1.06,5.934,1.548,9.589
			c0.487,3.655,0.946,6.4,1.376,8.234c0.114,0.43,0.702,0.645,1.763,0.645s1.936-0.2,2.623-0.602
			c1.032-2.666,3.053-7.109,6.063-13.33c0.114,0.774,0.372,2.595,0.774,5.461c0.4,2.867,0.859,5.476,1.375,7.826
			c0.115,0.43,0.695,0.645,1.742,0.645c1.046,0,1.928-0.2,2.645-0.602c0.658-1.662,1.82-4.164,3.482-7.504
			c1.662-3.339,3.053-6.292,4.172-8.857c1.117-2.565,1.676-4.473,1.676-5.719C145.92,21.439,144.788,20.213,142.524,19.009z
			 M166.389,30.64c0.688-3.884,1.031-6.098,1.031-6.643c0-1.404-0.372-2.38-1.117-2.925c-0.746-0.544-1.85-0.816-3.311-0.816
			c-0.345,0-0.947,0.028-1.807,0.086c0.172,1.376,0.258,3.175,0.258,5.396s-0.365,4.565-1.096,7.03
			c-0.731,2.466-1.707,4.487-2.925,6.063c-1.219,1.576-2.501,2.364-3.849,2.364c-0.918,0-1.627-0.422-2.129-1.269
			c-0.501-0.845-0.752-1.941-0.752-3.289c0-2.896,0.86-5.854,2.58-8.88c1.721-3.023,4.027-5.052,6.923-6.084
			c-1.376-0.631-2.724-0.946-4.042-0.946c-2.293,0-4.371,0.854-6.234,2.559c-1.864,1.706-3.262,3.784-4.193,6.235
			c-0.932,2.45-1.396,4.98-1.396,7.589c0,2.609,0.58,4.623,1.74,6.042c1.162,1.419,2.695,2.128,4.602,2.128s3.849-0.831,5.826-2.493
			c1.979-1.663,3.354-3.855,4.129-6.579c-0.115,1.146-0.172,1.921-0.172,2.321c0,2.294,0.5,4.05,1.504,5.268
			c1.004,1.219,2.58,2.014,4.73,2.387c-0.889-1.806-1.333-3.877-1.333-6.214C165.357,37.635,165.702,34.526,166.389,30.64z
			 M188.061,18.966c-1.491,1.204-2.51,3.898-3.053,8.084c-0.717,5.304-1.965,9.202-3.742,11.696
			c-1.003,1.376-2.135,2.063-3.396,2.063c-2.093,0-3.139-1.72-3.139-5.16c0-2.952,0.924-5.79,2.773-8.514
			c1.849-2.724,4.336-4.414,7.461-5.074c-0.059-0.917-0.459-1.447-1.205-1.591c-0.287-0.058-0.702-0.086-1.246-0.086
			c-1.922,0-3.684,0.33-5.289,0.989c-2.896,1.176-5.16,3.268-6.795,6.277c-1.461,2.609-2.192,5.433-2.192,8.472
			c0,2.608,0.581,4.751,1.741,6.428c1.161,1.678,2.845,2.516,5.053,2.516c1.748,0,3.469-0.745,5.16-2.235s2.952-3.469,3.783-5.935
			c-0.114,5.504-0.76,9.847-1.935,13.029c-0.516,1.376-1.118,2.522-1.806,3.439c-0.688,0.918-1.361,1.555-2.021,1.914
			c-0.659,0.358-1.426,0.537-2.301,0.537c-0.874,0-1.611-0.365-2.214-1.097c-0.603-0.73-0.903-1.598-0.903-2.602
			c0-1.49,0.545-2.595,1.635-3.311c-0.688-0.287-1.362-0.43-2.021-0.43c-1.605,0-2.853,0.451-3.74,1.354
			c-0.89,0.902-1.334,2.063-1.334,3.482s0.631,2.724,1.893,3.913c1.261,1.189,3.01,1.785,5.246,1.785
			c5.531,0,9.523-2.882,11.975-8.644s3.677-14.376,3.677-25.843c0-1.548,0.2-3.841,0.603-6.88
			C189.667,17.891,188.777,18.364,188.061,18.966z"/>
	</g>
</g>
<g id="Forma_1_1_">
	<g>
		<path fill-rule="evenodd" clip-rule="evenodd" fill="#FFFFFF" d="M39.831,24.208c-0.014-0.32-0.207-0.604-0.498-0.735
			s-0.631-0.084-0.877,0.119c-0.901,0.743-2.643,1.183-3.943,1.39c-0.011-0.139-0.021-0.278-0.033-0.418
			c-0.01-0.119-0.018-0.209-0.021-0.265c-0.252-3.998-3.271-7.002-7.031-7.002h-0.036c-3.837,0.02-6.975,3.222-6.997,7.138
			c-0.017,3.147-1.017,5.528-2.973,7.075c-4.638,3.669-13.29,1.986-15.831,1.383c-0.428-0.102-0.873,0.02-1.19,0.324
			c-0.317,0.305-0.458,0.745-0.377,1.179c0.133,0.707,0.384,1.828,0.829,3.157c0.119,0.354,0.446,0.577,0.798,0.577
			c0.089,0,0.18-0.015,0.269-0.045c0.44-0.149,0.677-0.629,0.529-1.072c-0.306-0.911-0.512-1.716-0.649-2.338
			c3.295,0.716,11.766,2.04,16.664-1.835c2.379-1.882,3.596-4.707,3.615-8.396c0.016-2.993,2.403-5.439,5.321-5.455h0.027
			c2.858,0,5.156,2.323,5.351,5.416c0.004,0.064,0.013,0.168,0.024,0.305c0.292,3.376,0.192,6.542-0.296,9.41
			c-0.079,0.461,0.229,0.898,0.688,0.977c0.458,0.079,0.893-0.23,0.972-0.691c0.165-0.967,0.287-1.966,0.367-2.991
			c1.1,0.175,2.944,0.574,3.923,1.383c0.153,0.127,0.343,0.192,0.535,0.192c0.116,0,0.233-0.023,0.343-0.073
			c0.291-0.131,0.484-0.415,0.498-0.735c0.006-0.131,0.096-2.599-1.148-3.985C39.926,26.808,39.836,24.339,39.831,24.208z
			 M36.927,29.012c0.599,0.163,0.917,0.87,1.078,1.592c-1.172-0.498-2.488-0.759-3.378-0.89c0.033-0.99,0.027-2.003-0.014-3.036
			c0.863-0.129,2.202-0.393,3.393-0.896c-0.16,0.723-0.479,1.434-1.08,1.598c-0.367,0.1-0.622,0.435-0.622,0.816
			C36.305,28.578,36.56,28.913,36.927,29.012z M32.753,36.962c-0.442-0.142-0.916,0.105-1.057,0.551
			c-0.999,3.163-2.547,5.63-4.63,7.395c0.833-1.584,1.061-3.446,0.579-5.246c-1.032-3.854-4.997-6.149-8.84-5.115
			c-0.763,0.205-2.401,1.325-3.311,1.976c-2.5,1.793-6.222,2.381-8.218,2.571c-0.81,0.077-1.508,0.561-1.868,1.292
			c-0.359,0.731-0.317,1.58,0.112,2.271c0.226,0.363,0.491,0.761,0.793,1.175c-0.942-1.029-1.78-2.236-2.51-3.623
			c-0.217-0.413-0.726-0.571-1.138-0.353C2.255,40.075,2.099,40.586,2.316,41c2.063,3.922,6.091,8.571,13.648,8.894v7.027
			c0,0.467,0.376,0.846,0.842,0.846c0.465,0,0.842-0.379,0.842-0.846v-7.023c0.77-0.025,1.515-0.088,2.236-0.186v7.208
			c0,0.468,0.377,0.847,0.842,0.847s0.842-0.379,0.842-0.847v-7.511c2.522-0.571,4.71-1.628,6.536-3.163
			c2.352-1.978,4.1-4.743,5.198-8.221C33.442,37.58,33.197,37.104,32.753,36.962z M24.379,45.66
			c-1.356,1.182-3.209,1.65-4.101,1.876c-0.107,0.026-0.201,0.051-0.279,0.071c-7.02,1.89-11.19-2.853-13.05-5.847
			c-0.17-0.274-0.079-0.528-0.031-0.625c0.048-0.097,0.194-0.326,0.518-0.357c2.644-0.252,6.358-0.956,9.036-2.878
			c1.246-0.89,2.437-1.629,2.77-1.719c2.947-0.793,5.987,0.966,6.778,3.92C26.56,42.125,25.932,44.254,24.379,45.66z M14.271,18.961
			c0.052,0.01,0.104,0.015,0.156,0.015c0.229,0,0.449-0.093,0.61-0.263c1.563-1.649,2.827-3.31,3.759-4.932
			c0.232-0.405,0.095-0.923-0.308-1.156s-0.917-0.095-1.15,0.31c-0.803,1.398-1.88,2.835-3.206,4.275
			C6.223,15.602,3.98,12.11,3.349,10.149C2.898,8.75,2.963,7.314,3.525,6.209c0.404-0.793,1.043-1.35,1.847-1.61
			c2.321-0.752,4.131,0.754,4.207,0.818c0.224,0.189,0.53,0.25,0.808,0.158c0.278-0.092,0.49-0.32,0.558-0.605
			c0.023-0.093,0.614-2.374,2.933-3.126c2.161-0.7,4.178,1.137,4.88,3.316c0.448,1.391,0.425,2.962-0.068,4.669
			c-0.13,0.448,0.127,0.918,0.574,1.049c0.446,0.13,0.913-0.128,1.043-0.577c0.589-2.038,0.606-3.943,0.053-5.662
			c-0.507-1.575-1.465-2.901-2.697-3.734c-1.331-0.9-2.858-1.139-4.302-0.671c-2.07,0.671-3.138,2.205-3.646,3.26
			C8.688,2.937,6.927,2.318,4.855,2.989c-1.239,0.401-2.218,1.248-2.83,2.45C1.262,6.94,1.16,8.847,1.747,10.669
			C2.505,13.025,5.141,17.235,14.271,18.961z M51.514,8.869c-0.345-1.074-1.041-1.905-2.011-2.403
			c-1.515-0.777-2.957-0.58-3.884-0.288c-0.306-0.926-0.99-2.214-2.505-2.991c-2.211-1.135-4.993,0.034-6.334,2.662
			c-0.92,1.803-1.828,5.761,2.428,12.013c0.157,0.23,0.417,0.368,0.695,0.368h0.021c7.543-0.195,10.212-3.247,11.132-5.05
			C51.774,11.771,51.942,10.2,51.514,8.869z M49.558,12.407c-0.732,1.435-2.898,3.843-9.217,4.114
			c-3.474-5.297-2.794-8.467-2.063-9.9c0.798-1.564,2.539-2.714,4.07-1.928c1.655,0.85,1.828,2.647,1.834,2.724
			c0.025,0.293,0.199,0.554,0.46,0.686s0.571,0.122,0.82-0.031c0.042-0.025,0.784-0.46,1.778-0.46c0.459,0,0.973,0.093,1.497,0.361
			c0.564,0.29,0.97,0.779,1.175,1.417C50.204,10.294,50.074,11.395,49.558,12.407z M28.012,10.887
			c0.136,0.086,0.292,0.13,0.448,0.13c0.121,0,0.242-0.026,0.355-0.079c4.858-2.271,5.736-5.055,5.827-6.512
			c0.063-1.002-0.187-1.969-0.703-2.721c-0.572-0.835-1.416-1.327-2.375-1.388c-1.123-0.07-1.98,0.369-2.54,0.802
			c-0.501-0.5-1.296-1.043-2.42-1.113c-1.859-0.115-3.427,1.504-3.564,3.69C22.95,5.154,23.475,8.026,28.012,10.887z M26.5,1.695
			c1.143,0.072,1.696,1.07,1.702,1.08c0.137,0.262,0.399,0.432,0.692,0.45c0.293,0.02,0.575-0.117,0.743-0.359
			c0.022-0.03,0.637-0.863,1.695-0.863c0.042,0,0.085,0.002,0.128,0.005c0.554,0.034,0.9,0.377,1.093,0.659
			C32.851,3.101,33,3.704,32.961,4.32c-0.109,1.754-1.721,3.519-4.441,4.883c-2.529-1.694-3.908-3.646-3.798-5.4
			C24.79,2.715,25.473,1.628,26.5,1.695z M22.328,39.295c0.333-0.327,0.337-0.863,0.012-1.197c-0.325-0.333-0.856-0.339-1.188-0.014
			c-0.046,0.044-3.839,3.611-11.485,2.843c-0.461-0.048-0.875,0.292-0.921,0.758C8.7,42.15,9.038,42.565,9.5,42.611
			c0.816,0.082,1.594,0.119,2.331,0.119C18.753,42.73,22.172,39.45,22.328,39.295z M23.067,41.958
			c-0.053,0.034-5.411,3.369-12.215,1.314c-0.445-0.135-0.915,0.119-1.048,0.566s0.119,0.92,0.564,1.054
			c1.8,0.544,3.5,0.753,5.048,0.753c4.961,0,8.371-2.142,8.556-2.26c0.392-0.252,0.506-0.775,0.256-1.169
			S23.459,41.708,23.067,41.958z M28.491,25.092c0.465,0,0.842-0.379,0.842-0.847c0-0.467-0.376-0.846-0.842-0.846
			c-0.465,0-0.842,0.379-0.842,0.846C27.649,24.713,28.026,25.092,28.491,25.092z"/>
	</g>
</g>
</svg>
