<svg height="512pt" viewBox="0 0 512 512" width="512pt" xmlns="http://www.w3.org/2000/svg"><path d="m406.625 512h-406.625v-384h512v278.625zm0 0" fill="#e4edfb"/><path d="m0 128h512v64h-512zm0 0" fill="#d7e1f2"/><path d="m96 64h-32v-48c0-8.835938 7.164062-16 16-16s16 7.164062 16 16zm0 0" fill="#bfc9d1"/><path d="m448 64h-32v-48c0-8.835938 7.164062-16 16-16s16 7.164062 16 16zm0 0" fill="#bfc9d1"/><path d="m406.625 406.625v105.375l105.375-105.375zm0 0" fill="#c8d5e8"/><path d="m512 160h-512v-80c0-17.671875 14.328125-32 32-32h448c17.671875 0 32 14.328125 32 32zm0 0" fill="#ff7761"/><g fill="#82b1ff"><path d="m112 224h288c8.835938 0 16 7.164062 16 16s-7.164062 16-16 16h-288c-8.835938 0-16-7.164062-16-16s7.164062-16 16-16zm0 0"/><path d="m112 288h288c8.835938 0 16 7.164062 16 16s-7.164062 16-16 16h-288c-8.835938 0-16-7.164062-16-16s7.164062-16 16-16zm0 0"/><path d="m320 384h-32v-32h32zm-64 0h-32v-32h32zm-64 0h-80c-8.835938 0-16-7.164062-16-16s7.164062-16 16-16h80zm0 0"/></g></svg>