<svg height="464pt" viewBox="-8 0 464 464" width="464pt" xmlns="http://www.w3.org/2000/svg"><path d="m160 296h256v120h-256zm0 0" fill="#a071a9"/><path d="m0 208h32v256h-32zm0 0" fill="#844aa8"/><path d="m128 208h32v208h-32zm0 0" fill="#844aa8"/><path d="m128 416-96 48v-120l96-40zm0 0" fill="#dc93bf"/><path d="m320 208h32v256h-32zm0 0" fill="#844aa8"/><path d="m416 208h32v208h-32zm0 0" fill="#844aa8"/><path d="m448 416-96 48v-112l96-48zm0 0" fill="#dc93bf"/><path d="m160 376h40v16h-40zm0 0" fill="#fff"/><path d="m216 376h16v16h-16zm0 0" fill="#fff"/><path d="m448 176h-448s192-136 224-176c32 40 224 176 224 176zm0 0" fill="#dc93bf"/><path d="m0 176h448v32h-448zm0 0" fill="#d9176c"/><path d="m0 208h64v16c0 8.835938-7.164062 16-16 16h-32c-8.835938 0-16-7.164062-16-16zm0 0" fill="#ffd782"/><path d="m64 208h64v16c0 8.835938-7.164062 16-16 16h-32c-8.835938 0-16-7.164062-16-16zm0 0" fill="#f7ab31"/><path d="m128 208h64v16c0 8.835938-7.164062 16-16 16h-32c-8.835938 0-16-7.164062-16-16zm0 0" fill="#ffd782"/><path d="m192 208h64v16c0 8.835938-7.164062 16-16 16h-32c-8.835938 0-16-7.164062-16-16zm0 0" fill="#f7ab31"/><path d="m256 208h64v16c0 8.835938-7.164062 16-16 16h-32c-8.835938 0-16-7.164062-16-16zm0 0" fill="#ffd782"/><path d="m320 208h64v16c0 8.835938-7.164062 16-16 16h-32c-8.835938 0-16-7.164062-16-16zm0 0" fill="#f7ab31"/><path d="m384 208h64v16c0 8.835938-7.164062 16-16 16h-32c-8.835938 0-16-7.164062-16-16zm0 0" fill="#ffd782"/></svg>