<svg height="472pt" viewBox="-3 0 471 472" width="472pt" xmlns="http://www.w3.org/2000/svg"><path d="m294.101562 456-21.601562-72h-80l-21.601562 72h-26.398438v16h176v-16zm0 0" fill="#e0e0de"/><path d="m440.5 64h-416c-13.253906 0-24 10.746094-24 24v248h464v-248c0-13.253906-10.746094-24-24-24zm0 0" fill="#348fd9"/><path d="m440.5 64h-80l-272 272h376v-248c0-13.253906-10.746094-24-24-24zm0 0" fill="#3086cd"/><path d="m.5 336v24c0 13.253906 10.746094 24 24 24h416c13.253906 0 24-10.746094 24-24v-24zm0 0" fill="#e0e0de"/><path d="m344.5 88h16v16h-16zm0 0" fill="#4db7e5"/><path d="m112.5 296h16v16h-16zm0 0" fill="#4db7e5"/><path d="m304.5 304h-144v-264l72-40 72 40zm0 0" fill="#ffb531"/><path d="m160.5 264v40h144v-184zm0 0" fill="#ffa912"/><g fill="#f98500"><path d="m232.5 64c-8.835938 0-16-7.164062-16-16s7.164062-16 16-16 16 7.164062 16 16-7.164062 16-16 16zm0-16"/><path d="m272.5 152-40 24-40-24v-40l40-24 40 24zm0 0"/><path d="m184.5 264h64v16h-64zm0 0"/><path d="m264.5 264h16v16h-16zm0 0"/><path d="m184.5 232h96v16h-96zm0 0"/><path d="m184.5 200h96v16h-96zm0 0"/></g><path d="m279.699219 408-7.199219-24h-80l-7.199219 24zm0 0" fill="#d6d6d4"/><path d="m120.5 216v-32h-25.601562c-2.042969-10.03125-6.007813-19.570312-11.671876-28.097656l18.136719-18.125-22.632812-22.632813-18.132813 18.136719c-8.527344-5.667969-18.066406-9.632812-28.097656-11.679688v-25.601562h-32v58.792969c19.90625-7.113281 42.121094-.371094 54.710938 16.609375 12.589843 16.980468 12.589843 40.199218 0 57.179687-12.589844 16.980469-34.804688 23.722657-54.710938 16.609375v58.808594h32v-25.601562c10.03125-2.042969 19.570312-6.007813 28.097656-11.671876l18.125 18.136719 22.632813-22.632812-18.136719-18.132813c5.667969-8.527344 9.632812-18.066406 11.679688-28.097656zm0 0" fill="#4db7e5"/><path d="m344.5 184v32h25.601562c2.042969 10.03125 6.007813 19.570312 11.671876 28.097656l-18.136719 18.125 22.632812 22.632813 18.125-18.136719c8.53125 5.667969 18.074219 9.632812 28.105469 11.679688v25.601562h32v-58.792969c-19.90625 7.113281-42.121094.371094-54.710938-16.609375-12.589843-16.980468-12.589843-40.199218 0-57.179687 12.589844-16.980469 34.804688-23.722657 54.710938-16.609375v-58.808594h-32v25.601562c-10.03125 2.042969-19.570312 6.007813-28.097656 11.671876l-18.125-18.136719-22.632813 22.632812 18.136719 18.125c-5.667969 8.53125-9.632812 18.074219-11.679688 28.105469zm0 0" fill="#4db7e5"/><path d="m304.5 64h16v240h-16zm0 0" fill="#3086cd"/></svg>