<svg id="Layer_1" enable-background="new 0 0 128 128" height="512" viewBox="0 0 128 128" width="512" xmlns="http://www.w3.org/2000/svg"><path d="m120.366 8.752c-.197-.02-.396-.03-.598-.03h-9.802-14.654-9.551-5.104-14.657-14.655-5.105-9.551-14.656-9.802c-.202 0-.401.01-.598.03-2.949.3-5.257 2.797-5.257 5.824v.001 15.781 53.416.006 33.643c0 3.229 2.626 5.855 5.854 5.855h25.214 57.109 25.214c3.229 0 5.854-2.627 5.854-5.855v-33.643c0-.002 0-.004 0-.006v-53.416-15.781-.001c.002-3.027-2.306-5.524-5.255-5.824z" fill="#e6e7e8"/><path d="m115.768 5.722h-107.536c-2.681 0-4.855 2.174-4.855 4.855v102.847c0 2.681 2.174 4.855 4.855 4.855h107.536c2.681 0 4.855-2.174 4.855-4.855v-102.847c0-2.681-2.174-4.855-4.855-4.855z" fill="#6dc9f7"/><path d="m87.531 38.765-51.538 79.513h51.562l8.614-61.231c-3.515-5.453-6.398-11.544-8.638-18.282z" fill="#d4fbff"/><path d="m36.469 38.765c-2.241 6.738-5.123 12.829-8.638 18.282l8.614 61.231h51.562z" fill="#d4fbff"/><path d="m36.445 118.278h25.555 25.555l.08-.573-25.635-39.551-25.636 39.551z" fill="#fff"/><path d="m37.822 34.386c-2.213-.606-4.062-2.098-5.133-4.076-1.41 2.603-4.166 4.375-7.328 4.375s-5.918-1.772-7.327-4.375c-1.41 2.603-4.166 4.375-7.328 4.375s-5.918-1.772-7.328-4.375v49.467c17.171-9.394 28.592-24.585 34.444-45.391z" fill="#fa759e"/><path d="m3.377 79.778v33.646c0 2.681 2.174 4.855 4.855 4.855h25.214c-3.477-15.838-14.894-28.032-30.069-38.501z" fill="#fa759e"/><path d="m30.574 109.679.06-.036c-.489-1.121-1.034-2.216-1.606-3.299-.26-.219-.453-.517-.531-.866l-.041-.183c-.424-.757-.868-1.505-1.331-2.244-.4-.01-.807.188-.999.633l-.652 1.514c-.274.635-.925 1.022-1.614.958l-1.642-.152c-1.023-.095-1.57 1.175-.798 1.853l1.239 1.088c.52.456.686 1.195.413 1.831l-.652 1.514c-.406.944.632 1.856 1.516 1.331l1.417-.842c.595-.353 1.349-.283 1.869.173l1.239 1.088c.772.678 1.961-.028 1.735-1.03l-.363-1.608c-.153-.674.146-1.37.741-1.723z" fill="#ffd7e5"/><path d="m90.554 118.278h25.214c2.681 0 4.855-2.174 4.855-4.855v-33.645c-15.175 10.469-26.592 22.663-30.069 38.5z" fill="#fa759e"/><path d="m113.295 34.686c-3.162 0-5.918-1.772-7.328-4.375-1.41 2.603-4.165 4.375-7.327 4.375s-5.918-1.772-7.328-4.375c-1.071 1.977-2.921 3.47-5.133 4.076 5.852 20.805 17.273 35.997 34.445 45.392v-49.468c-1.411 2.603-4.167 4.375-7.329 4.375z" fill="#fa759e"/><path d="m14.868 50.244-.72-1.483c-.302-.622-.97-.979-1.655-.884l-1.633.226c-1.018.141-1.621-1.102-.881-1.815l1.188-1.143c.498-.479.631-1.225.329-1.847l-.72-1.483c-.449-.924.547-1.883 1.454-1.399l1.454.777c.61.326 1.36.222 1.859-.258l1.188-1.143c.74-.712 1.96-.061 1.779.95l-.289 1.623c-.121.681.21 1.362.82 1.688l1.454.777c.906.484.664 1.845-.354 1.986l-1.633.226c-.685.095-1.231.62-1.352 1.301l-.289 1.623c-.181 1.012-1.55 1.202-1.999.278z" fill="#ffd7e5"/><path d="m3.377 98.971c.582.282 1.379-.014 1.513-.769l.289-1.623c.121-.681.667-1.206 1.352-1.301l1.633-.227c1.018-.141 1.26-1.502.354-1.986l-1.454-.777c-.61-.326-.941-1.007-.819-1.688l.289-1.623c.18-1.011-1.039-1.663-1.78-.95l-1.188 1.143c-.057.055-.127.087-.19.132v9.669z" fill="#ffd7e5"/><path d="m107.723 50.244-.72-1.483c-.302-.622-.97-.979-1.655-.884l-1.633.226c-1.018.141-1.621-1.102-.881-1.815l1.188-1.143c.498-.479.631-1.225.329-1.847l-.72-1.483c-.449-.924.547-1.883 1.454-1.399l1.454.777c.61.326 1.36.222 1.859-.258l1.188-1.143c.74-.712 1.96-.061 1.78.95l-.289 1.623c-.121.681.21 1.362.82 1.688l1.454.777c.906.484.664 1.845-.354 1.986l-1.633.226c-.685.095-1.231.62-1.352 1.301l-.289 1.623c-.182 1.012-1.552 1.202-2 .278z" fill="#ffd7e5"/><path d="m112.81 112.834-.72-1.483c-.302-.622-.97-.979-1.655-.884l-1.633.226c-1.018.141-1.621-1.102-.881-1.815l1.188-1.143c.498-.479.631-1.225.329-1.847l-.72-1.483c-.449-.924.547-1.883 1.454-1.399l1.454.777c.61.326 1.36.222 1.859-.258l1.188-1.143c.74-.712 1.96-.061 1.78.95l-.289 1.623c-.121.681.21 1.362.82 1.688l1.454.777c.906.484.664 1.845-.354 1.986l-1.633.226c-.685.095-1.231.62-1.352 1.301l-.289 1.623c-.182 1.013-1.551 1.203-2 .278z" fill="#ffd7e5"/><path d="m116.812 73.15-1.454-.777c-.61-.326-.941-1.007-.819-1.688l.289-1.623c.18-1.011-1.039-1.663-1.779-.95l-1.188 1.143c-.498.479-1.249.584-1.859.258l-1.454-.777c-.891-.476-1.861.442-1.468 1.352 2.186 2.015 4.507 3.894 6.979 5.622.219-.175.476-.306.767-.347l1.633-.227c1.017-.141 1.259-1.502.353-1.986z" fill="#ffd7e5"/><path d="m15.469 69.884-1.642-.152c-.689-.064-1.258-.564-1.41-1.238l-.363-1.608c-.226-1.002-1.602-1.13-2.009-.186l-.652 1.514c-.273.635-.925 1.022-1.613.958l-1.641-.152c-1.023-.095-1.57 1.175-.798 1.853l1.239 1.088c.52.456.686 1.195.413 1.831l-.652 1.514c-.406.944.632 1.856 1.516 1.331l1.417-.842c.26-.154.55-.213.838-.209 2.198-1.547 4.28-3.213 6.251-4.988-.124-.366-.43-.671-.894-.714z" fill="#ffd7e5"/><path d="m8.232 5.722c-2.681 0-4.855 2.174-4.855 4.855v15.781c0 4.047 3.281 7.328 7.328 7.328 4.047 0 7.328-3.281 7.328-7.328v-20.636z" fill="#fa759e"/><path d="m6.377 26.358v-15.781c0-2.681 2.174-4.855 4.855-4.855h-3c-2.681 0-4.855 2.174-4.855 4.855v15.781c0 4.047 3.281 7.328 7.328 7.328.514 0 1.016-.054 1.5-.155-3.328-.692-5.828-3.64-5.828-7.173z" fill="#fff"/><g fill="#fa759e"><path d="m18.033 5.722v20.636c0 4.047 3.281 7.328 7.328 7.328s7.328-3.281 7.328-7.328v-20.636z"/><path d="m32.688 5.722v20.636c0 4.047 3.281 7.328 7.328 7.328s7.328-3.281 7.328-7.328v-20.636z"/><path d="m47.344 5.722v20.636c0 4.047 3.281 7.328 7.328 7.328s7.328-3.281 7.328-7.328v-20.636z"/><path d="m62 5.722v20.636c0 4.047 3.281 7.328 7.328 7.328 4.047 0 7.328-3.281 7.328-7.328v-20.636z"/><path d="m76.656 5.722v20.636c0 4.047 3.281 7.328 7.328 7.328s7.328-3.281 7.328-7.328v-20.636z"/><path d="m91.312 5.722v20.636c0 4.047 3.281 7.328 7.328 7.328s7.328-3.281 7.328-7.328v-20.636z"/><path d="m115.768 5.722h-9.801v20.636c0 4.047 3.281 7.328 7.328 7.328s7.328-3.281 7.328-7.328v-15.781c0-2.682-2.174-4.855-4.855-4.855z"/></g><path d="m15.283 87.795c-.411-.367-1.043-.334-1.412.078-.368.411-.333 1.044.078 1.412 1.552 1.389 3.021 2.801 4.365 4.196.196.203.458.306.72.306.25 0 .5-.093.694-.28.397-.383.409-1.016.025-1.414-1.377-1.43-2.881-2.876-4.47-4.298z" fill="#3a2c60"/><path d="m116.366 4.752c-.197-.02-.396-.03-.598-.03h-9.802-14.654-14.656-14.656-14.655-14.657-14.655-9.802c-.202 0-.401.01-.598.03-2.949.3-5.257 2.797-5.257 5.824v.001 15.781 53.416.006 33.643c0 3.229 2.626 5.855 5.854 5.855h25.214 57.109 25.214c3.229 0 5.854-2.627 5.854-5.855v-33.643c0-.002 0-.004 0-.006v-53.416-15.781-.001c.002-3.027-2.306-5.524-5.255-5.824zm.178 2.048c1.755.36 3.079 1.917 3.079 3.777v15.781c0 3.489-2.839 6.327-6.328 6.327s-6.328-2.838-6.328-6.327v-19.636h8.802c.265 0 .525.027.775.078zm-11.577 19.558c0 3.489-2.838 6.327-6.327 6.327s-6.328-2.838-6.328-6.327v-19.636h12.655zm-14.655 0c0 3.489-2.839 6.327-6.328 6.327s-6.327-2.838-6.327-6.327v-19.636h12.655zm-14.656 0c0 3.489-2.839 6.327-6.328 6.327s-6.328-2.837-6.328-6.327v-19.636h12.656zm-14.656 0c0 3.489-2.839 6.327-6.328 6.327s-6.327-2.838-6.327-6.327v-19.636h12.655zm-14.655 0c0 3.489-2.839 6.327-6.328 6.327s-6.328-2.838-6.328-6.327v-19.636h12.656zm-41.968 5.4c1.529 1.789 3.796 2.928 6.328 2.928 3.162 0 5.918-1.772 7.328-4.375 1.41 2.603 4.165 4.375 7.327 4.375s5.918-1.772 7.328-4.375c.908 1.677 2.377 3.007 4.152 3.742-5.663 20.033-16.518 34.782-32.463 44.014zm27.311-5.4c0 3.489-2.839 6.327-6.328 6.327s-6.327-2.838-6.327-6.327v-19.636h12.655zm-23.457-19.636h8.802v19.637c0 3.489-2.839 6.327-6.328 6.327s-6.328-2.838-6.328-6.327v-15.782c0-1.86 1.324-3.417 3.079-3.777.25-.051.51-.078.775-.078zm0 110.556c-2.125 0-3.854-1.729-3.854-3.855v-31.725c1.625 1.155 3.187 2.32 4.658 3.476.435.341 1.064.265 1.403-.17.342-.435.266-1.063-.169-1.403-1.581-1.241-3.263-2.492-5.015-3.731 16.496-9.503 27.703-24.68 33.517-45.283-.029-.004-.056-.014-.085-.018.434.07.876.116 1.33.116 3.162 0 5.918-1.772 7.328-4.375 1.41 2.603 4.165 4.375 7.327 4.375s5.918-1.772 7.328-4.375c1.41 2.603 4.166 4.375 7.328 4.375s5.918-1.772 7.328-4.375c1.41 2.603 4.165 4.375 7.327 4.375.454 0 .896-.046 1.33-.116-.029.005-.056.014-.085.018 5.814 20.603 17.021 35.779 33.516 45.282-16.461 11.634-25.691 23.573-28.97 37.409h-55.55c-1.762-7.435-5.238-14.278-10.641-20.884-.351-.429-.98-.49-1.407-.142-.428.35-.491.98-.142 1.407 5.097 6.23 8.425 12.66 10.15 19.618h-23.952zm29.54-82.909c.012.004.025.006.038.01-.012-.003-.025-.006-.038-.01zm48.458 0c-.013.004-.026.006-.039.01.013-.003.026-.006.039-.01zm33.394 79.054c0 2.126-1.729 3.855-3.854 3.855h-23.954c3.238-13.068 12.124-24.438 27.808-35.58zm-32.463-79.37c1.775-.735 3.243-2.065 4.152-3.742 1.41 2.603 4.166 4.375 7.328 4.375s5.918-1.772 7.327-4.375c1.41 2.603 4.166 4.375 7.328 4.375 2.532 0 4.799-1.139 6.328-2.928v46.31c-15.945-9.233-26.8-23.982-32.463-44.015z" fill="#3a2c60"/></svg>