<svg id="Layer_1" enable-background="new 0 0 256 256" height="512" viewBox="0 0 256 256" width="512" xmlns="http://www.w3.org/2000/svg"><path d="m207.173 71.866-16.576-22.218h-35.597-35.597l-16.576 22.218c-8.401 11.261-12.949 25.009-12.949 39.146 0 35.762 28.5 64.753 63.656 64.753h2.931c35.156 0 63.656-28.991 63.656-64.753.001-14.137-4.547-27.885-12.948-39.146z" fill="#eaa97d"/><path d="m203.221 12.721c.815-2.383-1.316-4.726-3.769-4.159-7.435 1.718-9.189 6.788-19.537 6.788-12.46 0-12.46-7.35-24.92-7.35-12.458 0-12.458 7.35-24.916 7.35-10.346 0-12.099-5.069-19.532-6.788-2.453-.567-4.584 1.776-3.769 4.159l12.625 36.927h35.597 35.597z" fill="#eaa97d"/><path d="m158.21 72.731v4.383c2.894.298 5.377.893 7.446 1.785 2.07.893 3.875 2.246 5.418 4.058 1.217 1.38 2.157 2.8 2.82 4.261s.994 2.8.994 4.018c0 1.353-.494 2.523-1.481 3.51-.988.988-2.185 1.481-3.592 1.481-2.651 0-4.369-1.433-5.153-4.301-.893-3.382-3.044-5.627-6.452-6.736v16.881c3.354.92 6.026 1.759 8.014 2.516 1.988.758 3.767 1.853 5.336 3.287 1.677 1.488 2.969 3.267 3.875 5.336.906 2.07 1.359 4.336 1.359 6.797 0 3.084-.724 5.972-2.171 8.664s-3.578 4.89-6.391 6.594c-2.814 1.705-6.155 2.719-10.023 3.044v10.104c0 1.596-.156 2.759-.467 3.49s-.994 1.096-2.049 1.096c-.974 0-1.658-.298-2.049-.893-.393-.595-.589-1.515-.589-2.759v-10.957c-3.165-.352-5.931-1.096-8.299-2.232s-4.342-2.549-5.925-4.24c-1.583-1.69-2.753-3.449-3.51-5.275-.758-1.826-1.136-3.618-1.136-5.377 0-1.298.507-2.468 1.522-3.51 1.014-1.041 2.279-1.562 3.794-1.562 1.218 0 2.245.284 3.084.852.838.568 1.42 1.367 1.745 2.394.731 2.219 1.366 3.916 1.907 5.093s1.359 2.252 2.455 3.226 2.55 1.718 4.362 2.232v-18.87c-3.626-1.001-6.655-2.117-9.09-3.348s-4.41-2.983-5.925-5.255-2.272-5.195-2.272-8.765c0-4.653 1.481-8.468 4.444-11.443 2.962-2.976 7.244-4.708 12.843-5.195v-4.301c0-2.272.852-3.409 2.557-3.409 1.733-.001 2.599 1.109 2.599 3.326zm-5.154 27.838v-15.542c-2.272.676-4.045 1.569-5.316 2.678-1.272 1.11-1.907 2.787-1.907 5.032 0 2.137.594 3.754 1.785 4.849 1.191 1.096 3.004 2.09 5.438 2.983zm5.154 12.052v17.774c2.732-.541 4.842-1.636 6.33-3.287 1.488-1.65 2.232-3.571 2.232-5.762 0-2.354-.724-4.173-2.171-5.458s-3.578-2.374-6.391-3.267z" fill="#ffea92"/><path d="m156.466 177.765h-2.932c-36.203 0-65.656-29.945-65.656-66.753 0-14.479 4.74-28.806 13.346-40.342l16.576-22.218c.377-.506.972-.804 1.603-.804h71.193c.631 0 1.226.298 1.603.804l16.576 22.218c8.606 11.536 13.346 25.863 13.346 40.342.001 36.807-29.452 66.753-65.655 66.753zm-36.06-126.117-15.976 21.414c-8.094 10.85-12.552 24.328-12.552 37.95 0 34.602 27.659 62.753 61.656 62.753h2.932c33.998 0 61.656-28.151 61.656-62.753 0-13.623-4.458-27.1-12.552-37.95l-15.976-21.414z" fill="#3762cc"/><path d="m190.597 51.648h-71.193c-.855 0-1.616-.544-1.893-1.353l-12.625-36.927c-.62-1.813-.223-3.744 1.062-5.167 1.288-1.427 3.173-2.023 5.051-1.588 3.258.753 5.486 2.068 7.64 3.339 2.961 1.747 5.758 3.397 11.441 3.397s8.48-1.65 11.442-3.397c3.14-1.852 6.699-3.952 13.474-3.952s10.335 2.1 13.476 3.952c2.962 1.747 5.76 3.397 11.444 3.397s8.482-1.65 11.444-3.397c2.155-1.271 4.384-2.585 7.643-3.339 1.847-.424 3.781.182 5.05 1.588 1.284 1.423 1.681 3.354 1.061 5.167l-12.625 36.927c-.277.809-1.037 1.353-1.892 1.353zm-69.764-4h68.334l12.162-35.574c.206-.603-.103-1.035-.245-1.192-.145-.16-.55-.515-1.18-.371-2.659.614-4.53 1.718-6.512 2.887-3.141 1.853-6.7 3.952-13.476 3.952s-10.335-2.1-13.476-3.952c-2.962-1.748-5.76-3.398-11.444-3.398-5.683 0-8.48 1.65-11.442 3.397-3.14 1.853-6.699 3.952-13.475 3.952-6.774 0-10.333-2.1-13.474-3.952-1.98-1.168-3.851-2.272-6.509-2.887-.63-.145-1.036.21-1.18.371-.143.158-.452.59-.246 1.192z" fill="#3762cc"/><path d="m192.02 57.123h-73.685c-2.949 0-5.339-2.391-5.339-5.339v-3.916c0-2.949 2.391-5.339 5.339-5.339h73.685c2.949 0 5.339 2.391 5.339 5.339v3.916c.001 2.949-2.39 5.339-5.339 5.339z" fill="#6bdddd"/><path d="m192.021 59.124h-73.685c-4.047 0-7.339-3.292-7.339-7.34v-3.916c0-4.047 3.292-7.339 7.339-7.339h73.685c4.047 0 7.339 3.292 7.339 7.339v3.916c0 4.047-3.293 7.34-7.339 7.34zm-73.686-14.595c-1.841 0-3.339 1.498-3.339 3.339v3.916c0 1.842 1.498 3.34 3.339 3.34h73.685c1.841 0 3.339-1.498 3.339-3.34v-3.916c0-1.841-1.498-3.339-3.339-3.339z" fill="#3762cc"/><path d="m40.927 248h-32.989v-80h32.989c1.663 0 3.011 1.348 3.011 3.011v73.978c0 1.663-1.348 3.011-3.011 3.011z" fill="#4671c6"/><path d="m55.203 176h-11.265v66h11.265c1.511 0 2.735-1.225 2.735-2.735v-60.53c0-1.51-1.225-2.735-2.735-2.735z" fill="#e0ebfc"/><path d="m247.313 181.027c-4.907-8.429-15.774-11.317-24.272-6.45l-40.439 23.156c-2.85 1.632-6.184 2.21-9.418 1.633l-52.758-9.42-7.333-.839h43.297c9.733 0 17.623-7.89 17.623-17.623 0-3.059-2.48-5.539-5.539-5.539h-50.055c-3.509 0-6.976.761-10.162 2.232l-32.839 15.153c-5.132 2.368-10.717 3.594-16.369 3.594h-1.112v46.323h9.691l110.399-9.693c.079-.007.159-.013.238-.019l3.186-.26c2.608-.267 5.131-1.078 7.405-2.38l56.412-32.302c2.672-1.53 3.587-4.917 2.045-7.566z" fill="#f9cfcf"/><g fill="#3762cc"><path d="m67.628 235.248h-9.691c-1.104 0-2-.896-2-2v-46.323c0-1.104.896-2 2-2h1.112c5.326 0 10.696-1.179 15.531-3.41l32.838-15.153c3.425-1.581 7.229-2.416 11-2.416h50.055c4.157 0 7.539 3.382 7.539 7.539 0 10.82-8.803 19.623-19.623 19.623h-18.083l35.229 6.291c2.769.494 5.633-.004 8.072-1.4l40.439-23.157c9.434-5.403 21.544-2.182 26.994 7.18 1.014 1.741 1.285 3.771.765 5.715-.523 1.953-1.782 3.584-3.543 4.593l-56.412 32.302c-2.534 1.451-5.291 2.337-8.195 2.635l-3.444.281-110.408 9.692c-.058.005-.116.008-.175.008zm-7.69-4h7.603l110.578-9.707 3.171-.258c2.303-.236 4.529-.952 6.574-2.123l56.412-32.302c.83-.476 1.422-1.241 1.667-2.157.243-.907.116-1.854-.358-2.667-4.347-7.469-14.015-10.035-21.55-5.721l-40.439 23.156c-3.251 1.863-7.072 2.525-10.763 1.867l-52.697-9.409-7.271-.832c-1.053-.12-1.83-1.042-1.769-2.101.06-1.059.936-1.886 1.997-1.886h43.297c8.614 0 15.623-7.008 15.623-15.623 0-1.951-1.587-3.539-3.539-3.539h-50.055c-3.197 0-6.421.708-9.324 2.048l-32.838 15.153c-5.088 2.348-10.711 3.644-16.319 3.769z"/><path d="m40.926 250h-32.988c-1.104 0-2-.896-2-2v-80c0-1.104.896-2 2-2h32.989c2.763 0 5.011 2.248 5.011 5.011v73.978c0 2.763-2.249 5.011-5.012 5.011zm-30.988-4h30.989c.558 0 1.011-.454 1.011-1.011v-73.978c0-.558-.454-1.011-1.011-1.011h-30.989z"/><path d="m55.203 244h-11.265c-1.104 0-2-.896-2-2v-66c0-1.104.896-2 2-2h11.265c2.611 0 4.735 2.124 4.735 4.735v60.53c0 2.611-2.125 4.735-4.735 4.735zm-9.265-4h9.265c.405 0 .735-.33.735-.735v-60.53c0-.405-.33-.735-.735-.735h-9.265z"/></g></svg>