<svg id="Flat" height="512" viewBox="0 0 64 64" width="512" xmlns="http://www.w3.org/2000/svg"><path d="m3 38h7a2 2 0 0 1 2 2 2 2 0 0 1 -2 2h-7a0 0 0 0 1 0 0v-4a0 0 0 0 1 0 0z" fill="#e6c871"/><path d="m3 42h4a0 0 0 0 1 0 0v19a0 0 0 0 1 0 0h-2a2 2 0 0 1 -2-2v-17a0 0 0 0 1 0 0z" fill="#b38652"/><path d="m59 42h2a0 0 0 0 1 0 0v19a0 0 0 0 1 0 0h-4a0 0 0 0 1 0 0v-17a2 2 0 0 1 2-2z" fill="#b38652" transform="matrix(-1 0 0 -1 118 103)"/><path d="m7 38h2a10 10 0 0 0 10-10v-16h-3l-9 10z" fill="#efefef"/><path d="m7 61h6a2 2 0 0 0 2-2v-13a4 4 0 0 0 -4-4h-4z" fill="#efefef"/><path d="m52 38h7a2 2 0 0 1 2 2 2 2 0 0 1 -2 2h-7a0 0 0 0 1 0 0v-4a0 0 0 0 1 0 0z" fill="#e6c871" transform="matrix(-1 0 0 -1 113 80)"/><path d="m57 38h-2a10 10 0 0 1 -10-10v-16h3l9 10z" fill="#efefef"/><path d="m57 61h-6a2 2 0 0 1 -2-2v-13a4 4 0 0 1 4-4h4z" fill="#efefef"/><path d="m57 38v-4a25 25 0 0 0 -25-25 25 25 0 0 0 -25 25v4h-4v-4a29 29 0 0 1 29-29 29 29 0 0 1 29 29v4z" fill="#b38652"/><path d="m34.4 9 5.6 7v5.13148a1 1 0 0 1 -1.5547.832l-.8906-.59373a1 1 0 0 0 -1.1094 0l-.8906.59373a1 1 0 0 1 -1.5547-.832v-2.8287a1 1 0 0 0 -.16795-.5547l-1.83205-2.74808v-6z" fill="#e69a9a"/><path d="m29.6 8.99978-5.6 7v5.13148a1 1 0 0 0 1.5547.832l.8906-.59373a1 1 0 0 1 1.1094 0l.8906.59373a1 1 0 0 0 1.5547-.832v-2.82871a1 1 0 0 1 .16795-.5547l1.83205-2.74807v-6z" fill="#d99191"/><path d="m30 5h4v4h-4z" fill="#ffde7e"/><g fill="#faa"><path d="m30 9-1.70711 1.70711a1 1 0 0 1 -.7071.29289h-3.58579a1 1 0 0 1 -1-1v-6a1 1 0 0 1 1-1h3.58579a1 1 0 0 1 .7071.29289l1.70711 1.70711z"/><path d="m34 9 1.70711 1.70711a1 1 0 0 0 .7071.29289h3.58579a1 1 0 0 0 1-1v-6a1 1 0 0 0 -1-1h-3.58579a1 1 0 0 0 -.7071.29289l-1.70711 1.70711z"/></g></svg>