<svg xmlns="http://www.w3.org/2000/svg" xmlns:xlink="http://www.w3.org/1999/xlink" width="512" height="512" viewBox="0 0 512 512">
  <defs>
    <clipPath id="clip-path">
      <rect width="512" height="512" fill="none"/>
    </clipPath>
    <linearGradient id="linear-gradient" x1="0.023" y1="0.641" x2="0.871" y2="0.178" gradientUnits="objectBoundingBox">
      <stop offset="0" stop-color="#ff3a40"/>
      <stop offset="1" stop-color="#ff7fc5"/>
    </linearGradient>
  </defs>
  <g id="Component_1_1" data-name="Component 1 – 1" clip-path="url(#clip-path)">
    <circle id="Ellipse_1" data-name="Ellipse 1" cx="256" cy="256" r="256" fill="url(#linear-gradient)"/>
    <g id="icon-1" transform="translate(119.887 119.78)">
      <path id="Path_1" data-name="Path 1" d="M4.134,201.1a4.134,4.134,0,0,0,4.134-4.134V76.56H252.531V122a4.134,4.134,0,0,0,8.268,0V40.3a25.165,25.165,0,0,0-25.135-25.137H224.824v-5.12A10.053,10.053,0,0,0,214.781,0H207.1a10.053,10.053,0,0,0-10.04,10.043v5.12H169.641v-5.12A10.053,10.053,0,0,0,159.6,0h-7.681a10.053,10.053,0,0,0-10.04,10.043v5.12H114.456v-5.12A10.053,10.053,0,0,0,104.414,0H96.735A10.053,10.053,0,0,0,86.693,10.043v5.12H59.274v-5.12A10.053,10.053,0,0,0,49.231,0H41.553A10.053,10.053,0,0,0,31.51,10.043v5.12H25.136A25.165,25.165,0,0,0,0,40.3V196.97A4.134,4.134,0,0,0,4.134,201.1ZM205.328,10.043A1.777,1.777,0,0,1,207.1,8.268h7.681a1.775,1.775,0,0,1,1.772,1.774V30.128a1.775,1.775,0,0,1-1.772,1.774H207.1a1.776,1.776,0,0,1-1.774-1.774Zm-55.182,0a1.775,1.775,0,0,1,1.772-1.774H159.6a1.777,1.777,0,0,1,1.774,1.774V30.128A1.777,1.777,0,0,1,159.6,31.9h-7.681a1.774,1.774,0,0,1-1.772-1.774Zm-55.185,0a1.777,1.777,0,0,1,1.774-1.774h7.681a1.777,1.777,0,0,1,1.774,1.774V30.128a1.777,1.777,0,0,1-1.774,1.774H96.736a1.776,1.776,0,0,1-1.774-1.774Zm-55.182,0a1.777,1.777,0,0,1,1.774-1.774h7.681a1.775,1.775,0,0,1,1.772,1.774V30.128A1.775,1.775,0,0,1,49.234,31.9H41.553a1.776,1.776,0,0,1-1.774-1.774ZM25.137,23.431h6.374v6.7A10.053,10.053,0,0,0,41.553,40.171h7.681a10.053,10.053,0,0,0,10.04-10.043v-6.7H86.7v6.7a10.053,10.053,0,0,0,10.04,10.043h7.681a10.053,10.053,0,0,0,10.043-10.043v-6.7h27.419v6.7a10.053,10.053,0,0,0,10.043,10.043H159.6a10.053,10.053,0,0,0,10.04-10.043v-6.7h27.419v6.7A10.053,10.053,0,0,0,207.1,40.171h7.681a10.053,10.053,0,0,0,10.04-10.043v-6.7h10.841A16.887,16.887,0,0,1,252.534,40.3V68.292H8.269V40.3A16.887,16.887,0,0,1,25.137,23.431Zm0,0" transform="translate(0)" fill="#fff"/>
      <path id="Path_2" data-name="Path 2" d="M46.8,411.887H10.755A2.489,2.489,0,0,1,8.268,409.4V388.146a4.134,4.134,0,1,0-8.268,0V409.4a10.768,10.768,0,0,0,10.755,10.755H46.8a4.134,4.134,0,1,0,0-8.268Zm0,0" transform="translate(0 -172.335)" fill="#fff"/>
      <path id="Path_3" data-name="Path 3" d="M69.595,160.762H55.224a4.134,4.134,0,0,0,0,8.268H69.595a4.134,4.134,0,0,0,0-8.268Zm0,0" transform="translate(-22.928 -72.146)" fill="#fff"/>
      <path id="Path_4" data-name="Path 4" d="M135.341,169.03h14.371a4.134,4.134,0,0,0,0-8.268H135.341a4.134,4.134,0,0,0,0,8.268Zm0,0" transform="translate(-58.883 -72.146)" fill="#fff"/>
      <path id="Path_5" data-name="Path 5" d="M215.458,169.03h14.368a4.134,4.134,0,1,0,0-8.268H215.458a4.134,4.134,0,0,0,0,8.268Zm0,0" transform="translate(-94.837 -72.146)" fill="#fff"/>
      <path id="Path_6" data-name="Path 6" d="M295.572,169.03h14.371a4.134,4.134,0,1,0,0-8.268H295.572a4.134,4.134,0,0,0,0,8.268Zm0,0" transform="translate(-130.791 -72.146)" fill="#fff"/>
      <path id="Path_7" data-name="Path 7" d="M390.057,160.762H375.689a4.134,4.134,0,1,0,0,8.268h14.368a4.134,4.134,0,1,0,0-8.268Zm0,0" transform="translate(-166.745 -72.146)" fill="#fff"/>
      <path id="Path_8" data-name="Path 8" d="M69.595,198.477H55.224a4.134,4.134,0,1,0,0,8.268H69.595a4.134,4.134,0,1,0,0-8.268Zm0,0" transform="translate(-22.928 -89.072)" fill="#fff"/>
      <path id="Path_9" data-name="Path 9" d="M135.341,206.745h14.371a4.134,4.134,0,0,0,0-8.268H135.341a4.134,4.134,0,0,0,0,8.268Zm0,0" transform="translate(-58.883 -89.072)" fill="#fff"/>
      <path id="Path_10" data-name="Path 10" d="M215.458,206.745h14.368a4.134,4.134,0,1,0,0-8.268H215.458a4.134,4.134,0,0,0,0,8.268Zm0,0" transform="translate(-94.837 -89.072)" fill="#fff"/>
      <path id="Path_11" data-name="Path 11" d="M295.572,206.745h14.371a4.134,4.134,0,1,0,0-8.268H295.572a4.134,4.134,0,0,0,0,8.268Zm0,0" transform="translate(-130.791 -89.072)" fill="#fff"/>
      <path id="Path_12" data-name="Path 12" d="M390.057,198.477H375.689a4.134,4.134,0,1,0,0,8.268h14.368a4.134,4.134,0,1,0,0-8.268Zm0,0" transform="translate(-166.745 -89.072)" fill="#fff"/>
      <path id="Path_13" data-name="Path 13" d="M135.015,308.007l21.257,21.257a16.281,16.281,0,0,0,23.022,0l58.212-58.212a16.281,16.281,0,0,0-23.024-23.024l-46.7,46.7-9.745-9.743a16.28,16.28,0,1,0-23.022,23.024Zm5.846-17.178a8.021,8.021,0,0,1,11.33,0L164.858,303.5a4.133,4.133,0,0,0,5.846,0l49.623-49.621a8.012,8.012,0,1,1,11.33,11.33l-58.21,58.21a8.011,8.011,0,0,1-11.33,0L140.86,302.159a8.02,8.02,0,0,1,0-11.33Zm0,0" transform="translate(-58.455 -109.172)" fill="#fff"/>
      <path id="Path_14" data-name="Path 14" d="M310.877,285.135V252.145a4.134,4.134,0,1,0-8.268,0v27.716a54.839,54.839,0,0,0-75.279,70.992H115.72a4.134,4.134,0,1,0,0,8.268h116.19a54.832,54.832,0,1,0,78.967-73.987Zm-33.422,90.037a46.581,46.581,0,1,1,46.581-46.581A46.632,46.632,0,0,1,277.455,375.172Zm0,0" transform="translate(-50.077 -111.302)" fill="#fff"/>
      <path id="Path_15" data-name="Path 15" d="M379.436,320.527a40.608,40.608,0,1,0,40.605,40.608A40.655,40.655,0,0,0,379.436,320.527Zm3.7,72.727a4.122,4.122,0,0,0,.433-1.832v-5.036a4.134,4.134,0,0,0-8.268,0v5.036a4.094,4.094,0,0,0,.433,1.832,32.388,32.388,0,0,1-28.418-28.418,4.087,4.087,0,0,0,1.832.433h5.034a4.134,4.134,0,0,0,0-8.268h-5.034a4.116,4.116,0,0,0-1.832.433,32.388,32.388,0,0,1,28.418-28.418,4.094,4.094,0,0,0-.433,1.832v5.036a4.134,4.134,0,1,0,8.268,0v-5.036a4.123,4.123,0,0,0-.433-1.832,32.388,32.388,0,0,1,28.418,28.418,4.123,4.123,0,0,0-1.832-.433h-5.036a4.134,4.134,0,1,0,0,8.268h5.036a4.094,4.094,0,0,0,1.832-.433A32.39,32.39,0,0,1,383.137,393.254Zm0,0" transform="translate(-152.058 -143.845)" fill="#fff"/>
      <path id="Path_16" data-name="Path 16" d="M418.242,379.877h-4.978v-4.24a4.134,4.134,0,1,0-8.268,0v8.374a4.132,4.132,0,0,0,4.134,4.134h9.112a4.134,4.134,0,1,0,0-8.268Zm0,0" transform="translate(-181.753 -166.722)" fill="#fff"/>
    </g>
  </g>
</svg>
