<svg height="512pt" viewBox="0 -11 512.0004 512" width="512pt" xmlns="http://www.w3.org/2000/svg"><path d="m464.027344 402.066406h-416.054688c-26.492187 0-47.972656-21.476562-47.972656-47.972656v-306.121094c0-26.496094 21.480469-47.972656 47.972656-47.972656h416.050782c26.496093 0 47.976562 21.476562 47.976562 47.972656v306.121094c0 26.496094-21.480469 47.972656-47.972656 47.972656zm0 0" fill="#d476e2"/><path d="m464.027344 0h-416.054688c-26.492187 0-47.972656 21.476562-47.972656 47.972656v14c0-26.496094 21.480469-47.972656 47.972656-47.972656h416.050782c26.496093 0 47.976562 21.476562 47.976562 47.972656v-14c0-26.496094-21.480469-47.972656-47.972656-47.972656zm0 0" fill="#ea82fa"/><path d="m461.648438 108.96875c-.585938-.863281-1.328126-1.609375-2.195313-2.191406-1.292969-.878906-2.859375-1.390625-4.539063-1.390625h-58.453124l22.988281-5.375c11.015625-2.578125 19.621093-11.179688 22.195312-22.199219.28125-1.191406.484375-2.375.617188-3.546875v-.003906c.015625-.136719.007812-.269531.023437-.40625.097656-1.003907.160156-2.003907.160156-2.992188 0-.40625-.046874-.800781-.066406-1.203125-.027344-.710937-.050781-1.421875-.132812-2.117187-.054688-.449219-.148438-.890625-.21875-1.332031-.105469-.632813-.199219-1.265626-.34375-1.882813-.105469-.460937-.246094-.90625-.375-1.355469-.167969-.585937-.328125-1.167968-.527344-1.738281-.160156-.453125-.34375-.886719-.523438-1.328125-.222656-.546875-.449218-1.089844-.703124-1.621094-.207032-.433594-.433594-.851562-.660157-1.273437-.277343-.511719-.554687-1.019531-.863281-1.511719-.25-.410156-.519531-.808594-.789062-1.203125-.324219-.476563-.660157-.941406-1.011719-1.398437-.292969-.378907-.597657-.75-.90625-1.113282-.375-.4375-.761719-.863281-1.15625-1.277344-.332031-.347656-.667969-.6875-1.015625-1.019531-.417969-.394531-.847656-.773437-1.289063-1.148437-.363281-.308594-.726562-.613282-1.105469-.90625-.460937-.355469-.9375-.6875-1.417968-1.015625-.390625-.265625-.777344-.535157-1.179688-.78125-.503906-.308594-1.027344-.589844-1.550781-.871094-.410156-.21875-.8125-.445313-1.234375-.644531-.550781-.261719-1.121094-.492188-1.691406-.71875-.417969-.167969-.832032-.351563-1.261719-.5-.609375-.210938-1.230469-.378906-1.855469-.550782-.414062-.117187-.820312-.25-1.238281-.347656-.703125-.160156-1.421875-.269531-2.144531-.378906-.359375-.054688-.710938-.136719-1.074219-.175781-1.09375-.125-2.199219-.195313-3.320313-.195313-1.128906 0-2.269531.0625-3.421874.199219-1.152344.132813-2.316407.332031-3.484376.605469-.6875.164062-1.367187.347656-2.035156.554687-1.335937.414063-2.632812.921875-3.882812 1.507813-1.246094.589844-2.445313 1.261718-3.589844 2.011718-2.289062 1.496094-4.355469 3.300782-6.148438 5.351563-1.789062 2.054687-3.300781 4.359375-4.476562 6.855469-.292969.621094-.566406 1.257812-.820312 1.90625-.503907 1.292968-.917969 2.632812-1.242188 4.011718l-4.695312 20.082032c-.109376-.046875-.207032-.105469-.316407-.148438-.90625-.386718-1.863281-.683594-2.847656-.886718-.988281-.199219-2.015625-.304688-3.0625-.304688s-2.070313.105469-3.058594.304688c-.988281.203124-1.941406.5-2.851562.886718-.105469.042969-.207031.101563-.3125.148438l-4.699219-20.082032c-2.578125-11.019531-11.179688-19.621093-22.195312-22.199218-.175782-.039063-.347657-.050782-.523438-.089844-2.15625-.464844-4.292969-.714844-6.378906-.714844-1.125 0-2.230469.070313-3.324219.195313-.351563.039062-.691406.117187-1.039063.171875-.730468.109375-1.464843.21875-2.179687.382812-.410156.09375-.804687.226563-1.207031.335938-.636719.175781-1.273438.347656-1.890625.5625-.417969.144531-.820313.324218-1.230469.488281-.582031.230469-1.160156.464844-1.722656.730469-.410156.195312-.804688.417968-1.207032.632812-.53125.285156-1.066406.570313-1.582031.886719-.394531.242187-.769531.503906-1.152343.765625-.492188.332031-.976563.671875-1.445313 1.035156-.371094.285156-.730469.582032-1.085937.886719-.449219.378906-.886719.765625-1.308594 1.171875-.339844.320312-.671875.65625-.996094.996094-.40625.421875-.792969.855468-1.171875 1.296875-.308594.359375-.605469.726562-.894531 1.097656-.359375.460937-.695313.9375-1.027344 1.417969-.265625.390625-.527344.78125-.777344 1.179687-.308594.5-.59375 1.015625-.875 1.535157-.222656.417968-.445312.828124-.652344 1.253906-.257812.539062-.480468 1.089844-.707031 1.644531-.175781.433594-.359375.863281-.515625 1.304687-.203125.578126-.367187 1.171876-.535156 1.765626-.125.441406-.261719.878906-.367188 1.328124-.148437.628907-.246093 1.273438-.351562 1.914063-.070312.4375-.160156.863281-.210938 1.304687-.082031.710938-.109374 1.4375-.136718 2.164063-.019532.386719-.0625.765625-.0625 1.15625 0 1.023437.058594 2.066406.167968 3.109375.007813.097656.003907.191406.015626.289062v.011719s0 0 0-.003906c.132812 1.175781.335937 2.359375.613281 3.550781 2.578125 11.019532 11.179687 19.621094 22.195312 22.199219l22.992188 5.375h-58.453125c-1.679688 0-3.246094.511719-4.542969 1.390625-.863281.582031-1.609375 1.328125-2.195313 2.191406-.875 1.296875-1.386718 2.863282-1.386718 4.542969v11.082031c0 4.488282 3.636718 8.125 8.125 8.125h1.449218v139.8125c0 7.390625 5.988282 13.382813 13.378907 13.382813h134.621093c7.386719 0 13.378907-5.992188 13.378907-13.382813v-139.816406h1.445312c4.488281 0 8.125-3.636719 8.125-8.125v-11.082031c.015625-1.679688-.492187-3.246094-1.371093-4.542969zm-32.933594-34.183594c-1.4375 6.144532-6.144532 10.855469-12.289063 12.292969l-25.84375 6.046875 6.042969-25.847656c1.4375-6.144532 6.148438-10.851563 12.292969-12.292969 1.292969-.300781 2.597656-.453125 3.878906-.453125 4.972656 0 9.648437 2.296875 12.824219 6.304688 1.832031 2.3125 4.671875 7.199218 3.09375 13.949218zm-111.882813 0c-1.578125-6.75 1.261719-11.636718 3.09375-13.949218 3.179688-4.007813 7.855469-6.304688 12.828125-6.304688 1.277344 0 2.582032.152344 3.875.453125 6.144532 1.441406 10.855469 6.148437 12.292969 12.292969l6.046875 25.847656-25.847656-6.046875c-6.140625-1.4375-10.851563-6.148437-12.289063-12.292969zm0 0" fill="#69ebfc"/><path d="m44.242188 361.632812h32.296874v105.671876h-32.296874zm0 0" fill="#69ebfc"/><path d="m443.546875 383.425781c-26.117187.617188-82.148437 15.433594-111.539063 18.378907-13.417968 1.347656-26.554687-10.332032-37.839843-11.671876 17.925781-5.046874 59.296875-3.296874 72.78125-10.269531 20.074219-10.378906-19.183594-22.0625-34.03125-24.816406-14.84375-2.75-57.441407-2.816406-79.515625-3-22.078125-.179687-41.386719-13.4375-64.578125-11.824219-23.195313 1.613282-45.648438 15.542969-62.722657 31.734375-16.324218 2.410157-33.125 2.949219-49.566406 3.25v72.933594c18.4375-.355469 44.367188 3.382813 67.375 3.027344 21.640625 1.359375 54.574219 4.085937 75.21875 2.734375 20.648438-1.347656 83.40625 9.914062 90.40625 10.257812 19.300782.945313 147.3125-40.734375 171.039063-51.292968 23.71875-10.554688-10.90625-30.058594-37.027344-29.441407zm0 0" fill="#ffefe4"/><path d="m480.574219 402.867188c-23.722657 10.558593-151.738281 52.238281-171.039063 51.292968-7-.34375-69.757812-11.605468-90.40625-10.257812-20.644531 1.351562-53.578125-1.378906-75.21875-2.734375-23.007812.355469-48.9375-3.382813-67.375-3.027344v10c18.4375-.355469 44.367188 3.382813 67.375 3.027344 21.640625 1.359375 54.574219 4.085937 75.21875 2.734375 20.648438-1.347656 83.40625 9.914062 90.40625 10.257812 19.300782.945313 147.3125-40.734375 171.039063-51.292968 8.71875-3.878907 9.535156-8.96875 5.808593-13.824219-1.285156 1.359375-3.167968 2.648437-5.808593 3.824219zm0 0" fill="#edd4c2"/><path d="m44.242188 455.566406h32.296874v11.738282h-32.296874zm0 0" fill="#5fd4e3"/><path d="m44.242188 490.019531h-44.242188v-151.097656h44.242188zm0 0" fill="#6770e6"/><path d="m0 478.277344h44.242188v11.742187h-44.242188zm0 0" fill="#5861c7"/><g fill="#69ebfc"><path d="m105.574219 168.457031 20.476562 10.765625c2.390625 1.253906 5.183594-.773437 4.726563-3.433594l-3.914063-22.804687 16.570313-16.148437c1.929687-1.882813.863281-5.164063-1.804688-5.554688l-22.898437-3.328125-10.238281-20.746094c-1.195313-2.421875-4.644532-2.421875-5.839844 0l-10.238282 20.746094-22.898437 3.328125c-2.671875.390625-3.738281 3.671875-1.804687 5.554688l16.570312 16.148437-3.914062 22.804687c-.453126 2.660157 2.335937 4.6875 4.726562 3.433594zm0 0"/><path d="m206.429688 168.457031 20.480468 10.765625c2.386719 1.253906 5.179688-.773437 4.722656-3.433594l-3.914062-22.804687 16.570312-16.148437c1.929688-1.882813.867188-5.164063-1.804687-5.554688l-22.894531-3.328125-10.242188-20.746094c-1.191406-2.421875-4.644531-2.421875-5.839844 0l-10.238281 20.746094-22.898437 3.328125c-2.671875.390625-3.738282 3.671875-1.800782 5.554688l16.566407 16.148437-3.914063 22.804687c-.453125 2.660157 2.335938 4.6875 4.726563 3.433594zm0 0"/><path d="m105.574219 271.5 20.476562 10.765625c2.390625 1.253906 5.183594-.773437 4.726563-3.433594l-3.914063-22.804687 16.570313-16.148438c1.929687-1.882812.863281-5.167968-1.804688-5.554687l-22.898437-3.328125-10.238281-20.746094c-1.195313-2.421875-4.644532-2.421875-5.839844 0l-10.238282 20.746094-22.898437 3.328125c-2.671875.386719-3.738281 3.671875-1.804687 5.554687l16.570312 16.148438-3.914062 22.804687c-.453126 2.660157 2.335937 4.6875 4.726562 3.433594zm0 0"/></g><path d="m206.429688 271.5 20.480468 10.765625c2.386719 1.253906 5.179688-.773437 4.722656-3.433594l-3.914062-22.804687 16.570312-16.148438c1.929688-1.882812.867188-5.167968-1.804687-5.554687l-22.894531-3.328125-10.242188-20.746094c-1.191406-2.421875-4.644531-2.421875-5.839844 0l-10.238281 20.746094-22.898437 3.328125c-2.671875.386719-3.738282 3.671875-1.800782 5.554687l16.566407 16.148438-3.914063 22.804687c-.453125 2.660157 2.335938 4.6875 4.726563 3.433594zm0 0" fill="#ffefe4"/><path d="m317 176.695312c0-3.347656.644531-6.507812 1.9375-9.476562 1.292969-2.964844 3.0625-5.574219 5.3125-7.824219 2.25-2.246093 4.90625-4.019531 7.96875-5.308593 3.0625-1.292969 6.410156-1.941407 10.050781-1.941407 3.636719 0 7.007813.648438 10.117188 1.941407 3.113281 1.289062 5.792969 3.0625 8.042969 5.308593 2.246093 2.25 4.019531 4.863281 5.3125 7.824219 1.289062 2.96875 1.9375 6.128906 1.9375 9.476562 0 3.351563-.648438 6.53125-1.9375 9.550782-1.292969 3.011718-3.066407 5.621094-5.3125 7.820312-2.25 2.203125-4.929688 3.949219-8.042969 5.242188-3.109375 1.292968-6.480469 1.9375-10.117188 1.9375-3.640625 0-6.988281-.644532-10.050781-1.9375-3.0625-1.292969-5.71875-3.039063-7.96875-5.242188-2.25-2.199218-4.019531-4.808594-5.3125-7.820312-1.292969-3.019532-1.9375-6.199219-1.9375-9.550782zm15.359375 0c0 3.160157.957031 5.695313 2.871094 7.609376 1.914062 1.914062 4.257812 2.871093 7.035156 2.871093 2.773437 0 5.121094-.957031 7.035156-2.871093 1.914063-1.914063 2.871094-4.449219 2.871094-7.609376 0-3.15625-.957031-5.691406-2.871094-7.605468-1.917969-1.914063-4.261719-2.875-7.035156-2.875-2.777344 0-5.121094.960937-7.035156 2.875-1.914063 1.914062-2.871094 4.449218-2.871094 7.605468zm6.667969 64.964844 56.144531-83.832031c2.097656-3.136719 6.34375-3.976563 9.476563-1.875 3.128906 2.101563 3.964843 6.339844 1.871093 9.472656l-56.144531 83.832031c-2.097656 3.136719-6.34375 3.972657-9.476562 1.871094-3.128907-2.097656-3.964844-6.335937-1.871094-9.46875zm38.84375-11.273437c0-3.347657.644531-6.507813 1.9375-9.472657 1.292968-2.96875 3.0625-5.574218 5.3125-7.824218 2.246094-2.25 4.902344-4.023438 7.96875-5.3125 3.0625-1.292969 6.410156-1.9375 10.046875-1.9375s7.011719.644531 10.125 1.9375c3.105469 1.289062 5.789062 3.0625 8.039062 5.3125 2.246094 2.25 4.019531 4.855468 5.3125 7.824218 1.292969 2.964844 1.9375 6.125 1.9375 9.472657 0 3.351562-.644531 6.535156-1.9375 9.550781s-3.066406 5.621094-5.3125 7.824219c-2.25 2.203125-4.929687 3.945312-8.039062 5.238281-3.113281 1.292969-6.488281 1.9375-10.125 1.9375s-6.984375-.644531-10.046875-1.9375c-3.066406-1.292969-5.722656-3.039062-7.96875-5.238281-2.25-2.203125-4.019532-4.808594-5.3125-7.824219-1.292969-3.015625-1.9375-6.199219-1.9375-9.550781zm15.359375 0c0 3.160156.957031 5.699219 2.875 7.609375 1.914062 1.917968 4.257812 2.871094 7.03125 2.871094 2.777343 0 5.121093-.953126 7.039062-2.871094 1.914063-1.914063 2.871094-4.449219 2.871094-7.609375 0-3.15625-.957031-5.691407-2.871094-7.605469-1.917969-1.914062-4.261719-2.875-7.039062-2.875-2.773438 0-5.121094.960938-7.03125 2.875-1.917969 1.914062-2.875 4.449219-2.875 7.605469zm0 0" fill="#ffefe4"/></svg>