<?xml version="1.0" encoding="iso-8859-1"?>
<!-- Generator: Adobe Illustrator 19.0.0, SVG Export Plug-In . SVG Version: 6.00 Build 0)  -->
<svg version="1.1" id="Capa_1" xmlns="http://www.w3.org/2000/svg" xmlns:xlink="http://www.w3.org/1999/xlink" x="0px" y="0px"
	 viewBox="0 0 512 512" style="enable-background:new 0 0 512 512;" xml:space="preserve">
<path style="fill:#FED9A8;" d="M423.697,342l-7.674-1.542c-5.445-1.094-9.363-5.878-9.363-11.432v-11.057h-50.195v11.336
	c0,5.554-3.918,10.337-9.363,11.432L340.818,342v42.208h82.879L423.697,342L423.697,342z"/>
<path style="fill:#F4C892;" d="M384.84,317.969v20.599c0,5.554,3.917,10.337,9.363,11.432l29.494,5.871V342l-7.674-1.542
	c-5.445-1.094-9.363-5.878-9.363-11.432v-11.057H384.84z"/>
<path style="fill:#4D4A5B;" d="M423.69,342l-22.764,5.981c-12.238,3.215-25.098,3.215-37.336,0L340.826,342l-48.966,14.417
	c-23.328,6.869-39.345,28.281-39.345,52.599v89.475H512v-89.475c0-24.318-16.017-45.731-39.345-52.599L423.69,342z"/>
<path style="fill:#444251;" d="M472.655,356.418l-48.966-14.417l-28.716,7.545l23.342,6.873
	c23.328,6.868,39.345,28.281,39.345,52.599v89.475H512v-89.475C512,384.699,495.983,363.286,472.655,356.418z"/>
<path style="fill:#D4FFF8;" d="M242.279,231.612c-39.58-94.052-107.316-88.875-108.519-88.775
	c-1.203-0.1-68.94-5.277-108.519,88.775C5.97,277.404,1.171,317.104,0.029,336.885c-0.449,7.774,4.416,14.865,11.84,17.217
	l121.891,38.602l121.891-38.602c7.424-2.351,12.289-9.442,11.84-17.217C266.349,317.104,261.549,277.404,242.279,231.612z"/>
<path style="fill:#C6F4EB;" d="M267.491,336.885c-1.142-19.782-5.941-59.482-25.212-105.273
	c-39.58-94.052-107.316-88.875-108.519-88.775c-0.479-0.04-11.522-0.879-27.132,4.064c23.575,7.465,57.575,28.126,81.387,84.711
	c19.27,45.792,24.07,85.492,25.212,105.273c0.449,7.774-4.416,14.866-11.84,17.217l-94.759,30.009l27.132,8.592l121.891-38.602
	C263.074,351.751,267.939,344.66,267.491,336.885z"/>
<path style="fill:#FED9A8;" d="M216.502,363.958l-44.812-13.194v-0.002l-7.024-1.412c-4.984-1.002-8.57-5.38-8.57-10.464v-10.12
	h-45.944v10.376c0,5.084-3.586,9.462-8.57,10.464l-5.752,1.156v0.002l-44.812,13.194c-21.352,6.287-36.012,25.886-36.012,48.145
	v86.441h237.51v-86.441C252.514,389.844,237.854,370.245,216.502,363.958z"/>
<path style="fill:#F4C892;" d="M216.502,363.958l-44.812-13.194v-0.002l-7.024-1.412c-4.984-1.002-8.57-5.38-8.57-10.464v-10.12
	H133.76v12.306c0,8.596,5.661,16.164,13.907,18.592l14.584,4.294c21.352,6.287,36.012,25.886,36.012,48.145v86.441h54.251v-86.441
	C252.514,389.844,237.854,370.245,216.502,363.958z"/>
<circle style="fill:#FF901D;" cx="133.76" cy="161.079" r="29.01"/>
<g>
	<path style="fill:#F4CFA6;" d="M211.613,280.648h-13.672v-33.667h13.672c5.982,0,10.832,4.85,10.832,10.832v12.003
		C222.445,275.799,217.595,280.648,211.613,280.648z"/>
	<path style="fill:#F4CFA6;" d="M55.906,280.648h13.672v-33.667H55.906c-5.982,0-10.832,4.85-10.832,10.832v12.003
		C45.074,275.799,49.924,280.648,55.906,280.648z"/>
</g>
<path style="fill:#FED9A8;" d="M133.76,333.849L133.76,333.849c-37.434,0-67.78-30.346-67.78-67.78v-19.048
	c0-37.434,30.346-67.78,67.78-67.78l0,0c37.434,0,67.78,30.346,67.78,67.78v19.048C201.539,303.503,171.193,333.849,133.76,333.849z
	"/>
<path style="fill:#F4CFA2;" d="M162.768,185.765v92.573c0,22.965-11.432,43.248-28.905,55.508
	c37.386-0.056,67.676-30.378,67.676-67.777v-19.048C201.539,219.97,185.685,196.636,162.768,185.765z"/>
<path style="fill:#FF901D;" d="M213.482,243.079v-1.031c0-44.03-35.693-79.723-79.723-79.723l0,0
	c-44.03,0-79.723,35.693-79.723,79.723v1.031c0,2.155,1.747,3.903,3.903,3.903h10.248c2.727,0,5.197-1.609,6.298-4.104l5.705-21.413
	c1.982-7.439,11.026-10.275,16.907-5.308c14.841,12.534,40.884,30.824,66.49,30.824h45.993
	C211.735,246.981,213.482,245.234,213.482,243.079z"/>
<path style="fill:#FF6D3A;" d="M133.76,162.325L133.76,162.325c-8.88,0-17.411,1.474-25.388,4.153
	c29.719,10.261,51.074,38.461,51.074,71.667v8.67c1.381,0.103,2.762,0.166,4.142,0.166h45.993c2.155,0,3.903-1.747,3.903-3.903
	v-1.031C213.482,198.019,177.789,162.325,133.76,162.325z"/>
<path style="fill:#FFFCFD;" d="M215.732,417.827c0-2.231-0.704-4.41-2.033-6.202c-8.112-10.94-21.115-18.034-35.781-18.034
	c-13.766,0-26.067,6.248-34.231,16.062c-5.19,6.239-14.665,6.239-19.855,0c-8.164-9.814-20.465-16.062-34.231-16.062
	c-14.666,0-27.669,7.094-35.781,18.034c-1.329,1.792-2.033,3.971-2.033,6.202v80.716h163.946v-80.716H215.732z"/>
<path style="fill:#F2F2F2;" d="M213.699,411.625c-8.112-10.94-21.115-18.034-35.781-18.034c-10.217,0-19.624,3.448-27.135,9.235
	c3.272,2.521,6.19,5.48,8.652,8.799c1.329,1.792,2.033,3.971,2.033,6.202v80.716h54.264v-80.716
	C215.732,415.597,215.028,413.417,213.699,411.625z"/>
<g>
	<path style="fill:#3A3847;" d="M304.407,498.492v-30.799V416.6c0-4.273-3.464-7.737-7.737-7.737s-7.737,3.464-7.737,7.737v51.093
		v30.799l0,0H304.407L304.407,498.492z"/>
	<path style="fill:#3A3847;" d="M474.46,498.492V416.6c0-4.273-3.464-7.737-7.737-7.737s-7.737,3.464-7.737,7.737v81.892l0,0H474.46
		L474.46,498.492z"/>
</g>
<g>
	<path style="fill:#F4CFA6;" d="M462.499,269.632h-15.085v-34.773h15.085c6.179,0,11.188,5.009,11.188,11.188v12.398
		C473.686,264.623,468.677,269.632,462.499,269.632z"/>
	<path style="fill:#F4CFA6;" d="M302.016,269.632h15.085v-34.773h-15.085c-6.179,0-11.188,5.009-11.188,11.188v12.398
		C290.828,264.623,295.837,269.632,302.016,269.632z"/>
</g>
<path style="fill:#FFDFB8;" d="M382.257,324.58L382.257,324.58c-38.663,0-70.006-31.343-70.006-70.006V234.9
	c0-38.663,31.343-70.006,70.006-70.006l0,0c38.663,0,70.006,31.343,70.006,70.006v19.674
	C452.263,293.237,420.921,324.58,382.257,324.58z"/>
<path style="fill:#F4CFA2;" d="M413.492,172.25v96.822c0,22.928-11.396,43.181-28.82,55.447
	c37.543-1.275,67.591-32.091,67.591-69.945V234.9C452.263,207.465,436.473,183.73,413.492,172.25z"/>
<path style="fill:#FF6991;" d="M289.67,13.455c-13.69,0-25.877,6.431-33.707,16.437c-7.83-10.006-20.017-16.437-33.707-16.437
	c-23.626,0-42.778,19.152-42.778,42.778c0,53.747,76.485,83.676,76.485,83.676s76.485-29.929,76.485-83.676
	C332.448,32.607,313.295,13.455,289.67,13.455z"/>
<path style="fill:#FF507E;" d="M289.67,13.455c-9.865,0-18.942,3.349-26.177,8.959c3.257,1.757,6.293,3.949,9.026,6.527
	c0.183,0.164,0.357,0.34,0.537,0.509c0.154,0.15,0.308,0.299,0.46,0.452c0.886,0.872,1.735,1.788,2.519,2.771
	c2.303,2.769,4.295,5.873,5.89,9.291c16.88,36.179-10.036,78.286-25,97.555c8.795-3.659,75.525-33.079,75.525-83.284
	C332.448,32.607,313.295,13.455,289.67,13.455z"/>
<path style="fill:#666277;" d="M340.825,342l-20.935,36.966c-0.541,0.955-0.458,2.14,0.209,3.011l62.159,96.276L340.825,342z"/>
<path style="fill:#FF901D;" d="M457.34,234.859h5.158c1.64,0,3.193,0.362,4.597,0.996v-17.792c0-40.276-32.65-72.926-72.926-72.926
	h-23.825c-40.276,0-72.926,32.65-72.926,72.926v17.792c1.404-0.634,2.957-0.996,4.597-0.996h5.158h5.078
	c0.005-8.517,1.532-16.677,4.322-24.225c30.955-8.771,62.417,15.166,96.632,15.166c17.089,0,28.754-3.824,36.643-8.501l0.182-0.002
	c1.454,5.612,2.229,11.497,2.233,17.562L457.34,234.859L457.34,234.859z"/>
<path style="fill:#FF6D3A;" d="M457.34,234.859C457.341,234.859,457.341,234.859,457.34,234.859h5.158
	c1.64,0,3.193,0.362,4.597,0.996v-17.792c0-40.276-32.65-72.926-72.926-72.926h-23.825c-5.219,0-10.306,0.559-15.214,1.601
	c32.971,6.999,57.712,36.268,57.712,71.325v7.729c0.121,0.001,0.241,0.008,0.362,0.008c17.089,0,28.754-3.824,36.643-8.501
	l0.182-0.002c1.454,5.612,2.229,11.497,2.233,17.562L457.34,234.859L457.34,234.859z"/>
<path style="fill:#FFFCFD;" d="M423.69,342l-22.88,6.011c-12.162,3.195-24.943,3.195-37.105,0L340.825,342l41.432,136.254
	L423.69,342z"/>
<polygon style="fill:#F33A3A;" points="390.204,387.395 374.257,387.395 369.103,424.637 382.257,463.08 395.409,424.644 "/>
<polygon style="fill:#E25959;" points="382.257,370.104 365.155,378.24 373.519,392.73 390.995,392.73 399.36,378.24 "/>
<path style="fill:#666277;" d="M423.69,342l20.935,36.966c0.541,0.955,0.458,2.14-0.209,3.011l-62.159,96.276L423.69,342z"/>
<polygon style="fill:#F33A3A;" points="390.204,387.395 374.257,387.395 368.118,431.755 382.257,478.254 396.401,431.741 "/>
<polygon style="fill:#E25959;" points="382.257,362.625 365.155,378.24 373.519,392.73 390.995,392.73 399.36,378.24 "/>
<g>
	<path style="fill:#4D4A5B;" d="M104.546,272.673c-2.56,0-4.642-2.082-4.642-4.642v-8.654c0-2.56,2.082-4.642,4.642-4.642
		s4.642,2.082,4.642,4.642v8.654C109.188,270.591,107.106,272.673,104.546,272.673z"/>
	<path style="fill:#4D4A5B;" d="M162.973,272.673c-2.56,0-4.642-2.082-4.642-4.642v-8.654c0-2.56,2.082-4.642,4.642-4.642
		s4.642,2.082,4.642,4.642v8.654C167.615,270.591,165.533,272.673,162.973,272.673z"/>
</g>
<path style="fill:#FF9FAF;" d="M133.759,312.961c-8.317,0-15.745-3.422-19.87-9.155c-1.495-2.077-1.021-4.984,1.057-6.479
	c0.795-0.572,1.73-0.874,2.705-0.874c1.494,0,2.904,0.722,3.775,1.931c2.314,3.215,7.155,5.293,12.333,5.293
	s10.019-2.077,12.333-5.292c0.87-1.21,2.281-1.932,3.774-1.932c0.975,0,1.91,0.303,2.706,0.875c2.077,1.495,2.552,4.402,1.057,6.479
	C149.504,309.539,142.076,312.961,133.759,312.961z"/>
<g>
	<path style="fill:#4D4A5B;" d="M352.084,261.243c-2.56,0-4.642-2.082-4.642-4.642v-8.938c0-2.56,2.082-4.642,4.642-4.642
		s4.642,2.082,4.642,4.642v8.938C356.727,259.16,354.644,261.243,352.084,261.243z"/>
	<path style="fill:#4D4A5B;" d="M412.43,261.243c-2.56,0-4.642-2.082-4.642-4.642v-8.938c0-2.56,2.082-4.642,4.642-4.642
		s4.642,2.082,4.642,4.642v8.938C417.073,259.16,414.99,261.243,412.43,261.243z"/>
</g>
<path style="fill:#C699A2;" d="M382.257,302.854c-8.541,0-16.167-3.511-20.398-9.392c-1.495-2.078-1.021-4.985,1.057-6.48
	c0.795-0.572,1.73-0.874,2.705-0.874c1.494,0,2.904,0.722,3.775,1.932c2.417,3.359,7.466,5.53,12.862,5.53s10.445-2.171,12.862-5.53
	c0.87-1.209,2.281-1.931,3.774-1.931c0.975,0,1.91,0.303,2.706,0.875c2.077,1.495,2.552,4.402,1.057,6.479
	C398.424,299.343,390.798,302.854,382.257,302.854z"/>
<g>
</g>
<g>
</g>
<g>
</g>
<g>
</g>
<g>
</g>
<g>
</g>
<g>
</g>
<g>
</g>
<g>
</g>
<g>
</g>
<g>
</g>
<g>
</g>
<g>
</g>
<g>
</g>
<g>
</g>
</svg>
