<svg id="Capa_1" enable-background="new 0 0 490.005 490.005" height="512" viewBox="0 0 490.005 490.005" width="512" xmlns="http://www.w3.org/2000/svg"><path d="m.003.005h489.997v489.997h-489.997z" fill="#544f57"/><path d="m277.04 71.679 52.161 348.17h-168.402l52.161-348.17" fill="#fc840d"/><path d="m263.406 71.679 29.966 348.17h-96.744l29.966-348.17" fill="#fba615"/><path d="m116.307 419.849h257.387v45.891h-257.387z" fill="#fb9369"/><path d="m116.307 419.849h61.452v45.891h-61.452z" fill="#f06b37"/><path d="m41.001 450.776h407.999v39.227h-407.999z" fill="#fb9369"/><path d="m41.001 450.776h99.733v39.227h-99.733z" fill="#f06b37"/><path d="m52.513 312.442v35.91s57.02 49.19 11.04 141.65h-63.55v-490l113.24 72.95c2.76 17.47 5.87 36.97 8.11 57.15 8.16 73.6 4.79 156.24-68.84 182.34z" fill="#fa4954"/><path d="m16.693 327.072s21 93.93 5.58 162.93h-22.27v-465.31l41.97 49.65s33.42 194.03-25.28 252.73z" fill="#e21f2d"/><path d="m490.003.002v490h-63.55c-45.99-92.46 11.03-141.65 11.03-141.65v-35.91c-73.62-26.1-77-108.74-68.83-182.34 2.23-20.18 5.34-39.68 8.1-57.15z" fill="#fa4954"/><path d="m473.313 327.072s-21 93.93-5.58 162.93h22.27v-465.31l-41.97 49.65s-33.42 194.03 25.28 252.73z" fill="#e21f2d"/><path d="m113.243 72.952c2.76 17.47 5.87 36.97 8.11 57.15-72.6-16.97-121.35-48.42-121.35-84.42v-45.68z" fill="#e21f2d"/><path d="m490.003.002v45.68c0 36-48.75 67.45-121.35 84.42 2.23-20.18 5.34-39.68 8.1-57.15z" fill="#e21f2d"/><path d="m31.328 319.939c-1.919 0-3.839-.732-5.303-2.197-2.929-2.929-2.929-7.678 0-10.606 53.67-53.67 53.67-101.686 53.67-130.374 0-4.142 3.358-7.5 7.5-7.5s7.5 3.358 7.5 7.5c0 82.916-37.771 120.688-58.063 140.98-1.465 1.464-3.385 2.197-5.304 2.197z" fill="#c21925"/><path d="m16.691 319.941c-1.059 0-2.134-.225-3.157-.701-3.756-1.746-5.386-6.207-3.639-9.962 15.825-34.042 16.587-115.785 16.593-116.606.03-4.142 3.415-7.455 7.553-7.447 4.142.03 7.476 3.411 7.447 7.553-.025 3.488-.806 85.856-17.991 122.823-1.27 2.732-3.978 4.34-6.806 4.34z" fill="#c21925"/><path d="m43.299 425.022c-4.142 0-7.5-3.358-7.5-7.5 0-22.491 0-38.74-8.958-66.895-1.256-3.947.926-8.165 4.873-9.421 3.948-1.256 8.166.926 9.421 4.873 9.664 30.373 9.664 48.497 9.664 71.442 0 4.143-3.358 7.501-7.5 7.501z" fill="#c21925"/><path d="m490.005.002c0 54-109.69 97.77-245 97.77s-245-43.77-245-97.77h490z" fill="#fa4954"/><path d="m219.023 97.232c-123.1-5.18-219.02-46.73-219.02-97.23h89.61c0 42.08 52.38 78.65 129.41 97.23z" fill="#e21f2d"/><path d="m458.673 319.939c-1.919 0-3.839-.732-5.303-2.197-20.293-20.291-58.064-58.061-58.064-140.98 0-4.142 3.357-7.5 7.5-7.5s7.5 3.358 7.5 7.5c0 76.706 33.597 110.301 53.67 130.374 2.93 2.929 2.93 7.677.001 10.606-1.465 1.464-3.385 2.197-5.304 2.197z" fill="#c21925"/><path d="m473.309 319.941c-2.828 0-5.535-1.607-6.806-4.34-17.187-36.967-17.967-119.335-17.992-122.823-.029-4.142 3.305-7.523 7.446-7.553 4.174-.019 7.523 3.304 7.554 7.446.006.822.78 82.59 16.594 116.607 1.746 3.756.117 8.216-3.639 9.962-1.023.475-2.098.701-3.157.701z" fill="#c21925"/><path d="m446.701 425.022c-4.143 0-7.5-3.358-7.5-7.5 0-22.945 0-41.069 9.663-71.442 1.257-3.948 5.479-6.128 9.421-4.873 3.947 1.256 6.129 5.474 4.874 9.421-8.958 28.154-8.958 44.404-8.958 66.895 0 4.141-3.357 7.499-7.5 7.499z" fill="#c21925"/><path d="m0 312.439h52.515v35.914h-52.515z" fill="#dfeaef"/><path d="m0 312.439h22.682v35.914h-22.682z" fill="#9bb9c1"/><path d="m437.483 312.442h52.515v35.914h-52.515z" fill="#dfeaef"/><path d="m437.483 312.442h22.682v35.914h-22.682z" fill="#9bb9c1"/><g fill="#c21925"><path d="m141.365 54.362c-.95 3.27-3.94 5.4-7.19 5.4-.7 0-1.41-.1-2.11-.3-15.42-4.51-37.79-12.18-56.77-23.12-18.94-10.92-31.12-23.12-36.29-36.34h16.76c10.57 16.88 39.04 32.94 80.51 45.06 3.98 1.16 6.26 5.33 5.09 9.3z"/><path d="m203.065 31.492c-.38 3.88-3.64 6.77-7.45 6.77-.25 0-.5-.01-.75-.04-67.25-6.63-116.88-33.83-124.52-38.22h34.73c1.99.83 4.08 1.67 6.25 2.52 21.22 8.3 50.92 17.41 85.01 20.77 4.13.41 7.14 4.08 6.73 8.2z"/><path d="m450.995.002c-5.17 13.22-17.35 25.42-36.29 36.34-18.97 10.94-41.35 18.61-56.77 23.12-.7.2-1.41.3-2.11.3-3.24 0-6.24-2.13-7.19-5.4-1.17-3.97 1.12-8.14 5.09-9.3 41.47-12.12 69.94-28.18 80.5-45.06h16.77z"/><path d="m419.655.002c-7.64 4.39-57.27 31.59-124.52 38.22-.25.03-.5.04-.75.04-3.81 0-7.07-2.89-7.45-6.77-.41-4.12 2.6-7.79 6.73-8.2 37.67-3.71 69.89-14.4 91.3-23.29h34.69z"/></g></svg>