<?xml version="1.0"?>
<svg xmlns="http://www.w3.org/2000/svg" viewBox="0 0 64 64" width="512px" height="512px"><g><g id="Outline"><g><path d="M53.42,20A3.94,3.94,0,0,0,54,18a4,4,0,0,0-8,0,3.91,3.91,0,0,0,.56,2h-3A12.33,12.33,0,0,0,44,17a12,12,0,0,0-24,0,12.33,12.33,0,0,0,.39,3H9a3,3,0,0,0-3,3V49a3,3,0,0,0,3,3H21.13l-2.67,4H16a3,3,0,0,0-3,3v2a1,1,0,0,0,1,1H48a1,1,0,0,0,1-1V59a3,3,0,0,0-3-3H43.54l-2.67-4H53a3,3,0,0,0,3-3V23A3,3,0,0,0,53.42,20ZM48,18a2,2,0,1,1,2,2A2,2,0,0,1,48,18ZM32,7A10,10,0,1,1,22,17,10,10,0,0,1,32,7ZM29.58,36a2,2,0,0,1-2.31,1.62l-6.85-1.21a1,1,0,0,0-.35,2l6.85,1.21a4.14,4.14,0,0,0,.7.06,4,4,0,0,0,3.52-2.13l2.33.2A3,3,0,0,0,35.76,37l5.92-5.44a2,2,0,0,1,2.9.21,2.12,2.12,0,0,1-.32,2.86l-8.8,8.07A5,5,0,0,1,32.08,44H14.25V32H18.2L28,33.72A2,2,0,0,1,29.58,36ZM12.25,46H8V30h4.25ZM47,59v1H15V59a1,1,0,0,1,1-1H46A1,1,0,0,1,47,59Zm-5.87-3H20.87l2.67-4H38.46ZM54,49a1,1,0,0,1-1,1H9a1,1,0,0,1-1-1V48h5.25a1,1,0,0,0,1-1V46H32.08a7,7,0,0,0,4.73-1.84l8.8-8.07a4.07,4.07,0,0,0,.51-5.6A3.91,3.91,0,0,0,43.31,29a4,4,0,0,0-3,1l-5.92,5.43a1,1,0,0,1-.77.26l-2-.18a4,4,0,0,0-3.3-3.84L18.46,30a.5.5,0,0,0-.17,0h-4V29a1,1,0,0,0-1-1H8V23a1,1,0,0,1,1-1H21.11a12,12,0,0,0,21.78,0H53a1,1,0,0,1,1,1Z" data-original="#000000" class="active-path" data-old_color="#000000" fill="#A93673"/><path d="M14,16a4,4,0,1,0-4-4A4,4,0,0,0,14,16Zm0-6a2,2,0,1,1-2,2A2,2,0,0,1,14,10Z" data-original="#000000" class="active-path" data-old_color="#000000" fill="#A93673"/><path d="M50,12a1,1,0,0,0,1-1V3a1,1,0,0,0-2,0v8A1,1,0,0,0,50,12Z" data-original="#000000" class="active-path" data-old_color="#000000" fill="#A93673"/><path d="M44,9a1,1,0,0,0,1-1V3a1,1,0,0,0-2,0V8A1,1,0,0,0,44,9Z" data-original="#000000" class="active-path" data-old_color="#000000" fill="#A93673"/><path d="M21,8a1,1,0,0,0,1-1V3a1,1,0,0,0-2,0V7A1,1,0,0,0,21,8Z" data-original="#000000" class="active-path" data-old_color="#000000" fill="#A93673"/><path d="M14,6a1,1,0,0,0,1-1V3a1,1,0,0,0-2,0V5A1,1,0,0,0,14,6Z" data-original="#000000" class="active-path" data-old_color="#000000" fill="#A93673"/><path d="M32,21a1.5,1.5,0,0,1-1.5-1.5,1,1,0,0,0-2,0A3.5,3.5,0,0,0,31,22.84V24a1,1,0,0,0,2,0V22.84A3.49,3.49,0,0,0,32,16a1.5,1.5,0,1,1,1.5-1.5,1,1,0,0,0,2,0A3.5,3.5,0,0,0,33,11.16V10a1,1,0,0,0-2,0v1.16A3.49,3.49,0,0,0,32,18a1.5,1.5,0,0,1,0,3Z" data-original="#000000" class="active-path" data-old_color="#000000" fill="#A93673"/></g></g></g> </svg>
